<?xml version="1.0" encoding="UTF-8"?>
<svg xmlns="http://www.w3.org/2000/svg" width="12" height="14" viewBox="0 0 12 14" fill="none">
  <path d="M1.99984 4.99967H9.99984V1.66634H1.99984V4.99967ZM1.99984 6.33301C1.63317 6.33301 1.31928 6.20245 1.05817 5.94134C0.797059 5.68023 0.666504 5.36634 0.666504 4.99967V1.66634C0.666504 1.29967 0.797059 0.985786 1.05817 0.724674C1.31928 0.463563 1.63317 0.333008 1.99984 0.333008H9.99984C10.3665 0.333008 10.6804 0.463563 10.9415 0.724674C11.2026 0.985786 11.3332 1.29967 11.3332 1.66634V4.99967C11.3332 5.36634 11.2026 5.68023 10.9415 5.94134C10.6804 6.20245 10.3665 6.33301 9.99984 6.33301H1.99984ZM1.99984 12.333H9.99984V8.99967H1.99984V12.333ZM1.99984 13.6663C1.63317 13.6663 1.31928 13.5358 1.05817 13.2747C0.797059 13.0136 0.666504 12.6997 0.666504 12.333V8.99967C0.666504 8.63301 0.797059 8.31912 1.05817 8.05801C1.31928 7.7969 1.63317 7.66634 1.99984 7.66634H9.99984C10.3665 7.66634 10.6804 7.7969 10.9415 8.05801C11.2026 8.31912 11.3332 8.63301 11.3332 8.99967V12.333C11.3332 12.6997 11.2026 13.0136 10.9415 13.2747C10.6804 13.5358 10.3665 13.6663 9.99984 13.6663H1.99984Z" fill="#9E9E9E"></path>
</svg>
