<?xml version="1.0" encoding="UTF-8"?>
<svg xmlns="http://www.w3.org/2000/svg" width="178" height="40" viewBox="0 0 178 40" fill="none">
  <g clip-path="url(#clip0_734_589)">
    <mask id="mask0_734_589" style="mask-type:luminance" maskUnits="userSpaceOnUse" x="0" y="0" width="178" height="40">
      <path d="M177.48 0H0V40H177.48V0Z" fill="white"></path>
    </mask>
    <g mask="url(#mask0_734_589)">
      <path d="M13.3709 36.1638C11.0077 36.669 11.2875 33.9833 12.1975 33.2444C12.2403 33.2724 12.2551 33.3415 12.1975 33.4879C12.0346 33.9059 11.745 35.3327 13.6128 34.7749C15.1532 34.3157 15.2174 31.3864 15.1927 30.3743C15.2009 30.1801 15.2042 30.0501 15.2042 30.0501L15.2388 26.0165L15.8181 26.0083V31.8636C15.8181 31.8636 15.7489 35.6537 13.3693 36.1605L13.3709 36.1638Z" fill="url(#paint0_linear_734_589)"></path>
      <path d="M11.943 33.279C11.943 33.279 12.1191 33.1918 12.1981 33.2444C11.288 33.9833 11.0083 36.6675 13.3715 36.1639C15.7511 35.6554 15.8202 31.867 15.8202 31.867V26.0116L16.3847 26.0034C16.3847 26.0034 16.3222 26.4988 16.3847 31.4177C16.3847 31.5049 16.3847 31.5905 16.3847 31.6761V32.3442C16.4226 33.2313 16.3765 36.8189 13.2365 37.3735C13.2365 37.3735 12.3709 37.5512 11.5694 37.0871C10.7696 36.623 9.89907 34.5116 11.9414 33.2823L11.943 33.279Z" fill="url(#paint1_linear_734_589)"></path>
      <path d="M20.2476 23.1167H14.8053C14.4781 23.1167 14.2129 23.3816 14.2129 23.7083C14.2129 24.0351 14.4781 24.2999 14.8053 24.2999H20.2476C20.5748 24.2999 20.8401 24.0351 20.8401 23.7083C20.8401 23.3816 20.5748 23.1167 20.2476 23.1167Z" fill="url(#paint2_linear_734_589)"></path>
      <path d="M11.4526 13.2874C11.4361 13.2808 11.4213 13.2775 11.4082 13.2758C11.6188 14.232 10.3566 15.1141 9.31157 14.808C8.26491 14.5002 7.86337 13.3285 7.80248 12.5583C7.74159 11.7881 8.81951 8.7387 12.4844 10.4946C16.151 12.2506 15.7956 16.4405 15.7956 16.4405V21.5701L15.2607 21.6244V21.7807L15.7956 21.7873L16.4078 21.7956C16.4078 21.7956 16.3452 21.3002 16.4078 16.3813C16.4703 11.4623 13.7944 8.57084 10.7318 8.12156C7.66917 7.67229 5.75195 10.1869 5.75195 12.1584C5.75195 14.13 7.39105 16.2414 9.66539 15.7773C11.9397 15.3132 11.576 13.3351 11.4542 13.2857L11.4526 13.2874Z" fill="url(#paint3_linear_734_589)"></path>
      <path d="M21.6893 36.1638C24.0525 36.669 23.7728 33.9833 22.8627 33.2444C22.8199 33.2724 22.8051 33.3415 22.8627 33.4879C23.0256 33.9059 23.3153 35.3327 21.4474 34.7749C19.907 34.3157 19.8429 31.3864 19.8675 30.3743C19.8593 30.1801 19.856 30.0501 19.856 30.0501L19.8215 26.0165L19.2422 26.0083V31.8636C19.2422 31.8636 19.3113 35.6537 21.691 36.1605L21.6893 36.1638Z" fill="url(#paint4_linear_734_589)"></path>
      <path d="M23.1176 33.279C23.1176 33.279 22.9415 33.1918 22.8625 33.2444C23.7726 33.9833 24.0524 36.6675 21.6892 36.1639C19.3095 35.6554 19.2404 31.867 19.2404 31.867V26.0116L18.6759 26.0034C18.6759 26.0034 18.7384 26.4988 18.6759 31.4177C18.6759 31.5049 18.6759 31.5905 18.6759 31.6761V32.3442C18.6381 33.2313 18.6841 36.8189 21.8241 37.3735C21.8241 37.3735 22.6897 37.5512 23.4912 37.0871C24.291 36.623 25.1616 34.5116 23.1193 33.2823L23.1176 33.279Z" fill="url(#paint5_linear_734_589)"></path>
      <path d="M15.7964 16.4386C15.7964 16.4386 16.1502 12.2487 12.4853 10.4927C8.81871 8.7368 7.74079 11.7862 7.80332 12.5564C7.86421 13.3266 8.26576 14.4967 9.31242 14.8061C10.3574 15.1138 11.6197 14.2301 11.409 13.2739C11.3267 13.2608 11.3086 13.325 11.3086 13.325C11.3086 13.325 11.3893 13.5685 10.9614 13.8812C10.5319 14.1939 9.69751 13.7298 10.1616 12.8724C10.6257 12.0133 12.273 11.7583 13.7574 12.721C15.2418 13.6837 15.2188 16.4254 15.2188 16.4254L15.2632 21.6208L15.7981 21.5665V16.4369L15.7964 16.4386Z" fill="url(#paint6_linear_734_589)"></path>
      <path d="M1.79435 32.3512C2.62543 26.0663 12.2839 29.0697 12.2839 29.0697C24.8998 33.4143 27.026 31.8427 27.026 31.8427C31.7392 30.1328 31.2307 24.0783 31.4167 17.7474C31.601 11.4164 29.7677 10.3072 28.8132 9.99949C27.8587 9.69175 25.1779 9.13715 22.1284 10.3698C19.079 11.6024 19.2633 16.9624 19.2633 16.9624V21.7069L19.2534 21.7875L19.8508 21.7793L19.8969 16.4275C19.8969 16.4275 19.8969 16.2975 19.91 16.0869C19.91 13.355 21.9474 11.1416 24.462 11.1416C26.9766 11.1416 29.014 13.355 29.014 16.0869C29.014 16.5559 28.9531 17.0101 28.8395 17.4396C28.5828 18.9553 27.6843 19.6152 27.6843 19.6152C29.7957 20.7524 29.1456 27.0866 28.1253 28.8952C27.105 30.7055 25.7127 32.886 15.7827 29.2672C5.85097 25.6467 0.143733 27.085 0.00385026 31.7258C-0.136033 36.3666 3.57663 36.0408 4.45872 35.7627C5.00015 35.5915 5.10383 35.3858 5.10383 35.2525L5.07585 35.264C1.74828 36.4654 1.79435 32.3528 1.79435 32.3528V32.3512Z" fill="url(#paint7_linear_734_589)"></path>
      <path d="M33.7295 16.2562C33.7146 15.9979 33.6603 14.2534 33.6603 14.2534C33.5731 12.9089 33.2473 11.8853 33.0267 11.3258C32.8984 10.9719 32.8112 10.8452 32.8112 10.8452C30.0267 6.39035 23.4834 8.32896 23.4834 8.32896C21.2058 9.04319 19.2952 11.1809 18.8196 14.5464C18.7373 15.1223 18.6978 15.7345 18.706 16.3829C18.7093 16.6397 18.7126 16.8849 18.7142 17.1186C18.7603 21.3513 18.706 21.7972 18.706 21.7972L19.254 21.7907L19.2639 21.71V16.9655C19.2639 16.9655 19.0796 11.6055 22.129 10.3729C25.1785 9.14029 27.8593 9.69488 28.8138 10.0026C29.7683 10.3104 31.6016 11.4196 31.4173 17.7505C31.233 24.0815 31.7415 30.1359 27.0266 31.8458C27.0266 31.8458 24.9004 33.4174 12.2845 29.0728C12.2845 29.0728 2.62603 26.0694 1.79496 32.3543C1.79496 32.3543 1.74888 36.4669 5.07645 35.2655L5.10443 35.254C5.10443 35.1701 5.06328 35.1158 5.06328 35.1158C4.45932 35.2557 3.48507 35.3939 3.34684 34.2798C3.20695 33.1656 4.22892 31.8211 4.22892 31.8211C8.45175 27.8303 15.5973 30.7531 15.5973 30.7531C25.7594 34.0938 28.822 32.4695 28.822 32.4695C35.0394 30.0569 33.8331 22.0754 33.8644 20.8065C33.8957 19.5377 34.7629 19.597 34.7629 19.597C33.8348 19.1329 33.7114 17.3753 33.7311 16.2579L33.7295 16.2562Z" fill="url(#paint8_linear_734_589)"></path>
      <path d="M18.1983 15.583C18.1983 15.583 18.2165 12.3525 19.3783 10.506C19.4557 10.404 19.5297 10.2954 19.6005 10.1802C20.1485 9.29153 20.4891 8.0441 20.4891 6.66008C20.4891 6.53337 20.4858 6.40829 20.4809 6.28322H20.4776C20.4776 6.28322 20.4809 6.26841 20.4809 6.26018C20.5566 5.6233 20.7031 5.02921 20.9154 4.47297C21.233 3.63861 21.6971 2.89311 22.2994 2.2299C22.3307 2.19534 22.3455 2.14268 22.3669 2.09825C22.3669 2.09825 22.3652 2.09825 22.3636 2.0966C22.3636 2.0966 22.3652 2.09496 22.3669 2.09331C22.2583 1.98963 22.1496 1.9271 22.041 1.89912C21.888 1.84152 21.7596 1.86127 21.6247 1.96001C21.5111 2.02419 21.4025 2.12622 21.3038 2.25952C21.1639 2.25952 21.0355 2.24965 20.9187 2.24142C20.5599 2.10977 20.318 2.1542 20.1666 2.39282C20.0349 2.52613 19.9889 2.73019 19.9839 2.954C19.9839 2.99185 19.9839 3.0297 19.9839 3.06756C19.9773 3.13832 19.9708 3.21238 19.9658 3.29301C19.9658 3.31112 19.9658 3.32922 19.9625 3.34732C19.9362 3.62051 19.8358 3.84596 19.6729 3.96939C19.6647 3.97597 19.6564 3.98091 19.6482 3.98749C19.5725 4.03851 19.4836 4.06978 19.3832 4.07471C19.143 4.08459 18.7793 3.94964 18.6789 3.74229C18.5752 3.5267 18.5472 3.15478 18.618 2.89805C18.6394 2.85033 18.6641 2.8026 18.6921 2.75488C19.194 1.91558 19.0804 1.50745 18.2592 1.16679C18.2905 0.398256 18.0683 0.00658274 17.5993 0C17.5894 0 17.5812 0 17.573 0H17.5697H17.5664V21.4614H18.2V15.583H18.1983Z" fill="url(#paint9_linear_734_589)"></path>
      <path d="M17.5641 26.0199V39.9918L17.5691 39.9967C17.6547 39.9852 18.9087 39.7696 19.8335 37.5166H19.8303C19.8303 37.5134 19.8335 37.5101 19.8352 37.5068C19.8352 37.5068 18.2109 36.5802 18.1961 32.4101V26.0166H17.5625L17.5641 26.0199Z" fill="url(#paint10_linear_734_589)"></path>
      <path d="M17.5449 24.8779C18.1975 24.8779 18.7265 24.3488 18.7265 23.6963C18.7265 23.0437 18.1975 22.5146 17.5449 22.5146C16.8923 22.5146 16.3633 23.0437 16.3633 23.6963C16.3633 24.3488 16.8923 24.8779 17.5449 24.8779Z" fill="url(#paint11_linear_734_589)"></path>
      <path d="M17.5552 24.4219C17.9578 24.4219 18.2842 24.0955 18.2842 23.6929C18.2842 23.2903 17.9578 22.9639 17.5552 22.9639C17.1526 22.9639 16.8262 23.2903 16.8262 23.6929C16.8262 24.0955 17.1526 24.4219 17.5552 24.4219Z" fill="url(#paint12_linear_734_589)"></path>
      <path d="M17.5651 0C17.5552 0 17.547 0 17.5371 0C17.0664 0.00658274 16.8442 0.398256 16.8788 1.16679C16.056 1.50745 15.9441 1.91558 16.446 2.75488C16.474 2.8026 16.4987 2.85033 16.52 2.89805C16.5908 3.15478 16.5628 3.52506 16.4592 3.74229C16.3604 3.948 15.9967 4.08459 15.7548 4.07471C15.6544 4.06978 15.5672 4.04015 15.4898 3.98749C15.4816 3.98256 15.4734 3.97597 15.4652 3.96939C15.3022 3.84432 15.2002 3.62051 15.1755 3.34732C15.1739 3.32922 15.1739 3.31112 15.1722 3.29301C15.1673 3.21238 15.1624 3.13832 15.1541 3.06756C15.1624 2.79931 15.1229 2.54916 14.9698 2.39282C14.8184 2.15255 14.5765 2.10977 14.2177 2.24142C14.1009 2.24965 13.9725 2.25788 13.8326 2.25952C13.7339 2.12622 13.6253 2.02419 13.5117 1.96001C13.3784 1.86127 13.2484 1.84152 13.0954 1.89912C12.9868 1.9271 12.8781 1.98963 12.7695 2.09331C12.7695 2.09331 12.7712 2.09496 12.7728 2.0966C12.7728 2.0966 12.7712 2.0966 12.7695 2.09825C12.7909 2.14268 12.8057 2.19534 12.837 2.2299C13.8409 3.33251 14.4646 4.66716 14.6538 6.25854C14.6538 6.26677 14.6555 6.27335 14.6571 6.28158H14.6538C14.6489 6.405 14.6456 6.53172 14.6456 6.65844C14.6456 8.04081 14.9863 9.28989 15.5343 10.1786C15.605 10.2938 15.6791 10.4024 15.7564 10.5044C16.9183 12.3509 16.9364 15.5813 16.9364 15.5813V21.6753H17.5634V0H17.5651Z" fill="url(#paint13_linear_734_589)"></path>
      <path d="M16.9379 32.4134C16.9231 36.5819 15.2988 37.51 15.2988 37.51C15.2988 37.51 15.2988 37.5133 15.3005 37.515C16.2253 39.7646 17.4777 39.9802 17.5649 39.9934V25.5591H16.9379V32.415V32.4134Z" fill="url(#paint14_linear_734_589)"></path>
      <path d="M19.7516 24.8809H15.1354C14.8082 24.8809 14.543 25.1457 14.543 25.4725C14.543 25.7992 14.8082 26.0641 15.1354 26.0641H19.7516C20.0788 26.0641 20.344 25.7992 20.344 25.4725C20.344 25.1457 20.0788 24.8809 19.7516 24.8809Z" fill="url(#paint15_linear_734_589)"></path>
      <path opacity="0.72" d="M17.7469 0.059082H17.4688V21.6126H17.7469V0.059082Z" fill="url(#paint16_linear_734_589)"></path>
      <path d="M19.7516 21.3081H15.1354C14.8082 21.3081 14.543 21.573 14.543 21.8997C14.543 22.2265 14.8082 22.4914 15.1354 22.4914H19.7516C20.0788 22.4914 20.344 22.2265 20.344 21.8997C20.344 21.573 20.0788 21.3081 19.7516 21.3081Z" fill="url(#paint17_linear_734_589)"></path>
      <path d="M17.5741 37.0528V36.9902C17.5741 37.0018 17.5741 37.01 17.5724 37.0215C17.5724 37.0133 17.5708 37.005 17.5708 36.9968V37.0478C17.4934 38.083 15.3047 37.5152 15.3047 37.5152C16.2345 39.7764 17.4951 39.9837 17.5708 39.9953V40.0018C17.5708 40.0018 18.8824 39.8554 19.8402 37.5218C19.8402 37.5218 17.6514 38.0896 17.5741 37.0544V37.0528Z" fill="url(#paint18_linear_734_589)"></path>
      <path d="M110.099 17.8984C109.829 18.1716 109.533 18.402 109.209 18.5863C108.885 18.7723 108.538 18.9121 108.166 19.0059C107.794 19.0998 107.405 19.1458 107.001 19.1458C106.566 19.1458 106.165 19.0849 105.796 18.9615C105.429 18.8381 104.58 18.4596 104.341 17.9823C104.196 17.6943 104.102 17.3356 104.038 16.9126C103.972 16.4913 103.921 16.0059 103.941 15.4595C104.015 13.3596 104.687 12.5532 105.07 12.2619C105.454 11.9706 105.949 11.8258 106.558 11.8258C107.066 11.8258 107.563 11.9295 108.046 12.1369C108.528 12.3442 108.942 12.6799 109.383 13.0387C109.876 13.4402 110.363 14.0475 110.54 14.5116C110.61 14.691 110.679 14.923 110.753 15.2094H111.146L111.126 11.2712H110.73C110.264 11.8489 109.877 12.1385 109.568 12.1385C109.428 12.1385 109.211 12.0463 108.914 11.8637C108.65 11.6876 108.391 11.5461 108.141 11.4391C107.891 11.3321 107.626 11.2531 107.344 11.2054C107.065 11.156 106.767 11.1313 106.454 11.1313C105.514 11.1313 104.685 11.342 103.968 11.7649C103.494 12.0431 103.077 12.3755 102.718 12.7639C102.36 13.1522 102.087 13.5703 101.899 14.0179C101.711 14.4655 101.619 14.9148 101.619 15.369C101.619 16.1309 101.856 16.8402 102.33 17.4985C102.804 18.1568 103.444 18.6801 104.249 19.0685C105.054 19.4569 105.921 19.6511 106.852 19.6511C108.332 19.6511 109.513 19.1623 110.396 18.1864C110.618 17.9363 110.791 17.696 110.917 17.4656C111.044 17.2352 111.159 16.9456 111.263 16.5983H110.792C110.744 17.0262 110.32 17.6729 110.101 17.9L110.099 17.8984Z" fill="url(#paint19_linear_734_589)"></path>
      <path d="M147.443 17.4014C147.001 18.1897 145.938 18.6291 145.654 18.7493C145.371 18.8678 145.052 18.9566 144.698 19.0126C144.345 19.0685 143.945 19.0982 143.5 19.0982H141.999V15.9351H142.378C143.1 15.9351 143.64 16.1671 144.048 16.5851C144.247 16.7892 144.56 17.2664 144.633 17.5215C144.705 17.7782 144.766 18.0498 144.818 18.3394H145.047V12.9712H144.818C144.776 13.2987 144.726 13.5472 144.675 13.715C144.572 14.11 144.41 14.3503 144.193 14.6366C143.77 15.1912 143.201 15.4677 142.483 15.4677H142.001V11.9953H143.797C144.562 11.9953 145.212 12.0957 145.748 12.2948C146.071 12.4199 146.708 12.7984 147.08 13.3201C147.259 13.5719 147.534 14.0804 147.605 14.63H147.868V11.4604H138.17V11.9969H138.418C138.985 11.9969 139.401 12.1188 139.671 12.3607C139.941 12.6027 140.076 12.9613 140.076 13.4682V17.5989C140.076 18.5994 139.523 19.0998 138.418 19.0998H138.17L138.183 19.6477H148.108V16.279H147.814C147.728 16.7875 147.578 17.1265 147.443 17.4047V17.4014Z" fill="url(#paint20_linear_734_589)"></path>
      <path d="M157.505 17.5398L154.358 11.459H150.547V11.9889H150.866C151.432 11.9889 151.848 12.1107 152.118 12.3526C152.388 12.5945 152.523 12.9697 152.523 13.4782V17.3621C152.523 17.8887 152.355 18.3083 152.021 18.6161C151.685 18.9255 151.225 19.0785 150.637 19.0785H150.545V19.6446H155.016V19.0555C154.582 19.0439 154.346 18.9682 154.042 18.83C153.738 18.6918 153.507 18.4943 153.351 18.2376C153.194 17.9808 153.115 17.6698 153.115 17.3028V12.3839H153.142L156.777 19.6446H156.999L160.914 12.3608H160.941V17.9282C160.941 18.4317 160.804 18.807 160.533 19.0505C160.261 19.2941 159.846 19.4175 159.29 19.4175H158.898V19.6463H164.792V19.4175H164.459C163.903 19.4175 163.487 19.2941 163.213 19.0489C162.939 18.802 162.802 18.4301 162.802 17.9298V13.4848C162.802 12.9812 162.939 12.6077 163.21 12.3625C163.482 12.1189 163.898 11.9955 164.459 11.9955H164.792V11.459H160.811L157.505 17.5398Z" fill="url(#paint21_linear_734_589)"></path>
      <path d="M50.9726 12.5089C49.9062 11.7535 48.6143 11.375 47.0986 11.375H41.0919C40.9882 11.375 40.9372 11.5182 40.9372 11.7041C40.9372 11.8901 41.0211 11.9888 41.189 11.9888C41.6284 11.9888 41.9147 12.0185 42.0447 12.0794C42.2504 12.1764 42.3541 12.3937 42.3541 12.731V18.1947C42.3541 18.5173 42.2504 18.7296 42.0447 18.8349C41.895 18.9106 41.6053 18.9468 41.1742 18.9468C41.0145 18.9468 40.9355 19.0752 40.9355 19.2595C40.9355 19.4438 40.9866 19.5491 41.0902 19.5491H46.9143C48.5337 19.5491 49.87 19.1969 50.9281 18.4942C52.0604 17.7454 52.6265 16.7399 52.6265 15.4744C52.6265 14.2763 52.0735 13.2889 50.9709 12.5105L50.9726 12.5089ZM48.5584 18.3165C47.8293 18.7361 47.0657 18.9451 46.2709 18.9451H45.3312C44.7042 18.9451 44.3915 18.6637 44.3915 18.1026V12.9532C44.3915 12.601 44.4343 12.3657 44.5182 12.2456C44.64 12.0744 44.8967 11.9872 45.29 11.9872H46.3153C47.6532 11.9872 48.6785 12.3772 49.3894 13.1556C50.0066 13.8435 50.3159 14.38 50.3159 15.4941C50.3159 16.9539 49.7317 17.65 48.5616 18.3165H48.5584Z" fill="url(#paint22_linear_734_589)"></path>
      <path d="M135.367 12.5089C134.301 11.7535 133.009 11.375 131.493 11.375H125.487C125.383 11.375 125.332 11.5182 125.332 11.7041C125.332 11.8901 125.416 11.9888 125.585 11.9888C126.025 11.9888 126.311 12.0185 126.441 12.0794C126.647 12.1764 126.751 12.3937 126.751 12.731V18.1947C126.751 18.5173 126.647 18.7296 126.441 18.8349C126.291 18.9106 126.002 18.9468 125.571 18.9468C125.411 18.9468 125.332 19.0752 125.332 19.2595C125.332 19.4438 125.383 19.5491 125.487 19.5491H131.311C132.93 19.5491 134.266 19.1969 135.325 18.4942C136.457 17.7454 137.023 16.7399 137.023 15.4744C137.023 14.2763 136.47 13.2889 135.367 12.5105V12.5089ZM132.953 18.3165C132.224 18.7361 131.461 18.9451 130.666 18.9451H129.726C129.099 18.9451 128.786 18.6637 128.786 18.1026V12.9532C128.786 12.601 128.829 12.3657 128.913 12.2456C129.035 12.0744 129.292 11.9872 129.685 11.9872H130.71C132.048 11.9872 133.072 12.3772 133.784 13.1556C134.401 13.8435 134.711 14.38 134.711 15.4941C134.711 16.9539 134.127 17.65 132.956 18.3165H132.953Z" fill="url(#paint23_linear_734_589)"></path>
      <path d="M59.3243 18.9468C58.9409 18.9468 58.6759 18.8958 58.5311 18.7954C58.3863 18.695 58.3139 18.4942 58.3139 18.1947V12.7195C58.3139 12.3904 58.4159 12.1764 58.6216 12.0794C58.7615 12.0119 59.0478 11.9888 59.4774 11.9888C59.7292 11.9888 59.7292 11.714 59.7292 11.6317C59.7292 11.5494 59.6781 11.375 59.5745 11.375H55.0274C54.9238 11.375 54.8727 11.5462 54.8727 11.6284C54.8727 11.7107 54.8727 11.9888 55.2792 11.9888C55.6528 11.9888 55.9161 12.0382 56.0659 12.1353C56.2156 12.2324 56.2897 12.4266 56.2897 12.7195V18.1947C56.2897 18.5304 56.1959 18.7444 56.0083 18.8349C55.8684 18.9106 55.5738 18.9468 55.1245 18.9468C54.9073 18.9468 54.8711 19.1147 54.8711 19.3335C54.8711 19.4158 54.9221 19.5508 55.0258 19.5508H59.5728C59.7884 19.5508 59.7275 19.2249 59.7275 19.1426C59.7275 19.0686 59.5909 18.9484 59.321 18.9484L59.3243 18.9468Z" fill="url(#paint24_linear_734_589)"></path>
      <path d="M70.9608 12.4858C71.3623 12.0662 71.9663 12.0119 72.4254 11.9888C72.5275 11.974 72.5801 11.8588 72.5801 11.6679C72.5801 11.4984 72.5291 11.375 72.4254 11.375H69.0715C68.9678 11.375 68.9168 11.4902 68.9168 11.6531C68.9168 11.8885 69.0057 11.9888 69.1834 11.9888C69.4928 11.9971 69.5948 11.9642 69.8285 12.1353C70.0622 12.3081 70.1659 12.6553 69.9832 13.0783L67.7632 17.5019L65.1745 13.126C65.0396 12.894 64.9721 12.7129 64.9721 12.5862C64.9721 12.211 65.3605 12.0119 66.1356 11.9905C66.2393 11.9905 66.292 11.8671 66.292 11.6449C66.292 11.5626 66.2409 11.375 66.1373 11.375H61.5902C61.4355 11.375 61.4355 11.5577 61.4355 11.64C61.4355 11.765 61.4866 11.9806 61.5902 11.9888C61.9276 12.0119 62.2024 12.1205 62.418 12.3147C62.5777 12.4496 62.7406 12.6702 62.9084 12.9762L66.4598 18.9419C66.7495 19.4652 66.9371 19.7285 67.021 19.7285C67.1609 19.7285 67.3765 19.4438 67.6661 18.876L70.6415 12.9483C70.7435 12.7393 70.7353 12.7195 70.9591 12.4875L70.9608 12.4858Z" fill="url(#paint25_linear_734_589)"></path>
      <path d="M83.2423 18.9466C82.6153 18.9384 82.0871 18.5582 81.6559 17.8012L77.8955 11.5558C77.7737 11.3386 77.6569 11.23 77.545 11.23C77.489 11.23 77.3491 11.309 77.1237 11.4653C76.9361 11.5854 76.7485 11.7006 76.5625 11.8126C76.2531 12.015 76.1001 12.1335 76.1001 12.1713C76.1001 12.224 76.1708 12.3655 76.3107 12.5975L73.8257 16.901C73.3946 17.7025 73.0062 18.2307 72.6606 18.4842C72.2393 18.7903 71.869 18.9449 71.5514 18.9449C71.4477 18.9449 71.377 19.0618 71.377 19.2428C71.377 19.4518 71.4477 19.5473 71.5514 19.5473H75.1587C75.2608 19.5473 75.3414 19.4502 75.3414 19.2576C75.3414 19.0322 75.2608 18.9598 75.1587 18.9449C74.2503 18.9071 74.015 18.5056 74.0792 17.8802C74.1006 17.6712 74.224 17.4029 74.3458 17.1561L74.7539 16.4797H78.4057L79.036 17.6909C79.2647 18.0875 79.3799 18.3459 79.3799 18.4644C79.3799 18.7853 79.3684 18.9466 78.6097 18.9466C78.5061 18.9466 78.4221 19.0684 78.4221 19.2461C78.4221 19.4716 78.5077 19.5489 78.6097 19.5489H83.3674C83.4694 19.5489 83.5665 19.4633 83.5665 19.2527C83.5665 19.0272 83.4283 18.9466 83.2407 18.9466H83.2423ZM75.1324 15.8593L76.653 13.055L78.1736 15.8659L75.134 15.8593H75.1324Z" fill="url(#paint26_linear_734_589)"></path>
      <path d="M100.547 18.9466C99.92 18.9384 99.3918 18.5582 98.9606 17.8012L95.2002 11.5558C95.0784 11.3386 94.9616 11.23 94.8497 11.23C94.7937 11.23 94.6538 11.309 94.4284 11.4653C94.2408 11.5854 94.0532 11.7006 93.8672 11.8126C93.5578 12.015 93.4048 12.1335 93.4048 12.1713C93.4048 12.224 93.4755 12.3655 93.6154 12.5975L91.1304 16.901C90.6993 17.7025 90.3109 18.2307 89.9653 18.4842C89.544 18.7903 89.1737 18.9449 88.8561 18.9449C88.7524 18.9449 88.6816 19.0618 88.6816 19.2428C88.6816 19.4518 88.7524 19.5473 88.8561 19.5473H92.4634C92.5655 19.5473 92.6461 19.4502 92.6461 19.2576C92.6461 19.0322 92.5655 18.9598 92.4634 18.9449C91.555 18.9071 91.3197 18.5056 91.3839 17.8802C91.4052 17.6712 91.5287 17.4029 91.6505 17.1561L92.0586 16.4797H95.7104L96.3407 17.6909C96.5694 18.0875 96.6846 18.3459 96.6846 18.4644C96.6846 18.7853 96.6731 18.9466 95.9144 18.9466C95.8107 18.9466 95.7268 19.0684 95.7268 19.2461C95.7268 19.4716 95.8124 19.5489 95.9144 19.5489H100.672C100.774 19.5489 100.871 19.4633 100.871 19.2527C100.871 19.0272 100.733 18.9466 100.545 18.9466H100.547ZM92.4371 15.8593L93.9577 13.055L95.4783 15.8659L92.4387 15.8593H92.4371Z" fill="url(#paint27_linear_734_589)"></path>
      <path d="M123.656 18.9466C123.029 18.9384 122.501 18.5582 122.07 17.8012L118.31 11.5558C118.188 11.3386 118.071 11.23 117.959 11.23C117.903 11.23 117.763 11.309 117.538 11.4653C117.35 11.5854 117.163 11.7006 116.977 11.8126C116.667 12.015 116.514 12.1335 116.514 12.1713C116.514 12.224 116.585 12.3655 116.725 12.5975L114.24 16.901C113.809 17.7025 113.42 18.2307 113.075 18.4842C112.653 18.7903 112.283 18.9449 111.965 18.9449C111.862 18.9449 111.791 19.0618 111.791 19.2428C111.791 19.4518 111.862 19.5473 111.965 19.5473H115.573C115.675 19.5473 115.755 19.4502 115.755 19.2576C115.755 19.0322 115.675 18.9598 115.573 18.9449C114.664 18.9071 114.429 18.5056 114.493 17.8802C114.515 17.6712 114.638 17.4029 114.76 17.1561L115.168 16.4797H118.82L119.45 17.6909C119.679 18.0875 119.794 18.3459 119.794 18.4644C119.794 18.7853 119.782 18.9466 119.024 18.9466C118.92 18.9466 118.836 19.0684 118.836 19.2461C118.836 19.4716 118.922 19.5489 119.024 19.5489H123.781C123.884 19.5489 123.981 19.4633 123.981 19.2527C123.981 19.0272 123.843 18.9466 123.656 18.9466ZM115.546 15.8593L117.067 13.055L118.588 15.8659L115.548 15.8593H115.546Z" fill="url(#paint28_linear_734_589)"></path>
      <path d="M177.291 11.375H173.811C173.707 11.375 173.623 11.4573 173.623 11.6844C173.623 11.8934 173.707 11.9888 173.811 11.9888C174.138 11.9971 174.441 12.0662 174.675 12.2587C175.022 12.5434 174.747 13.0207 174.599 13.2182C174.128 13.8501 172.655 15.7015 172.655 15.7015L170.643 13.1227C170.425 12.8166 170.318 12.5879 170.318 12.4381C170.318 12.1386 170.641 11.9888 171.286 11.9888C171.454 11.9888 171.589 11.9279 171.589 11.6778C171.589 11.4606 171.487 11.375 171.385 11.375H166.556C166.444 11.375 166.346 11.4951 166.346 11.686C166.346 11.8769 166.444 11.9888 166.556 11.9888H166.767C167.29 11.9888 167.74 12.2587 168.115 12.7969L170.991 16.5392V18.1848C170.991 18.4613 170.929 18.6555 170.802 18.7674C170.676 18.8793 170.445 18.9353 170.108 18.9353H169.813C169.654 18.9353 169.507 18.9995 169.507 19.2545C169.507 19.4668 169.626 19.5491 169.729 19.5491H174.248C174.35 19.5491 174.457 19.4932 174.457 19.2381C174.457 19.0208 174.345 18.9353 174.233 18.9353H173.883C173.555 18.9353 173.328 18.8826 173.202 18.7789C173.075 18.6753 173.012 18.4926 173.012 18.2309V16.2709L175.132 13.6065C175.394 13.233 175.693 12.8989 176.031 12.6076C176.49 12.2258 176.909 12.0201 177.294 11.9905C177.396 11.9839 177.487 11.8852 177.487 11.6613C177.487 11.4721 177.398 11.3766 177.294 11.3766L177.291 11.375Z" fill="url(#paint29_linear_734_589)"></path>
      <path d="M148.201 27.9704C148.201 28.6402 148.009 29.1948 147.627 29.6375C147.243 30.0785 146.763 30.3007 146.184 30.3007C145.968 30.3007 145.764 30.2628 145.568 30.1838L145.41 29.4548C145.614 29.6704 145.873 29.779 146.182 29.779C146.56 29.779 146.878 29.6194 147.133 29.3001C147.388 28.9825 147.515 28.5809 147.515 28.0971C147.515 27.7959 147.443 27.5606 147.299 27.3862C147.156 27.2134 146.959 27.1262 146.707 27.1262C146.401 27.1262 146.142 27.2611 145.927 27.531C145.764 27.7334 145.627 28.107 145.517 28.6501L144.967 31.3227C144.928 31.5152 144.908 31.6518 144.908 31.7324C144.908 31.8575 144.972 31.9793 145.102 32.0945H143.873C144.011 31.999 144.11 31.9019 144.168 31.8032C144.225 31.7045 144.276 31.5432 144.324 31.3227L144.847 28.7307C145.063 27.6709 145.17 27.0965 145.17 27.006C145.17 26.8645 145.088 26.7592 144.925 26.69H145.176L145.269 26.6983C145.507 26.6983 145.734 26.6325 145.948 26.5024L145.79 27.2545C146.086 26.7871 146.485 26.5518 146.983 26.5518C147.373 26.5518 147.673 26.6736 147.884 26.9172C148.093 27.1607 148.198 27.5129 148.198 27.9704H148.201Z" fill="black"></path>
      <path d="M43.9244 30.5723C43.2151 30.5723 42.6474 30.355 42.236 29.9271C41.8262 29.4993 41.6172 28.9035 41.6172 28.1597C41.6172 27.6396 41.7307 27.1344 41.9513 26.6539C42.1734 26.1733 42.4828 25.7701 42.8745 25.4558C43.4159 25.0181 44.0643 24.7959 44.8016 24.7959C45.185 24.7959 45.5586 24.8551 45.9108 24.972L45.8746 26.1042C45.6392 25.9034 45.4862 25.7405 45.3249 25.65C45.1636 25.5595 44.9398 25.5134 44.6584 25.5134C44.066 25.5134 43.5657 25.7208 43.1724 26.1305C42.9683 26.3461 42.7988 26.6341 42.6721 26.988C42.5437 27.3418 42.4779 27.7022 42.4779 28.0593C42.4779 28.6007 42.6194 29.0335 42.8975 29.3446C43.174 29.6556 43.5607 29.8136 44.0446 29.8136C44.6979 29.8136 45.2574 29.5931 45.7051 29.157L45.4286 30.2201C44.9053 30.4636 44.4083 30.5723 43.9244 30.5723Z" fill="url(#paint30_linear_734_589)"></path>
      <path d="M49.3267 30.5357C48.9087 30.5357 48.6882 30.3185 48.6882 29.9071C48.6882 29.7886 48.7079 29.6322 48.7507 29.4282L49.0404 28.0162C49.0864 27.8039 49.1095 27.6475 49.1095 27.5521C49.1095 27.2608 48.9515 27.1242 48.6125 27.1242C48.2159 27.1242 47.8999 27.2838 47.6498 27.6097C47.5346 27.7627 47.4424 27.9405 47.3766 28.138C47.3075 28.3437 47.2202 28.7271 47.1116 29.2932L47.0458 29.6405C47.0079 29.8396 46.9882 29.9729 46.9882 30.042C46.9882 30.1506 47.0474 30.2576 47.1643 30.3629L45.9004 30.4584C46.0041 30.2741 46.0979 30.1819 46.1505 30.0864C46.2048 29.9877 46.2559 29.8297 46.3003 29.6158L46.9306 26.5038C47.0787 25.7682 47.1528 25.3633 47.1528 25.2992C47.1528 25.1872 47.0754 25.0786 46.924 24.975L47.2531 24.8746C47.523 24.8746 47.7617 24.812 47.9674 24.6919L47.5263 27.269C47.8456 26.7391 48.3311 26.4939 48.8791 26.4939C49.5538 26.4939 49.8978 26.7671 49.8978 27.3052C49.8978 27.4583 49.8681 27.6821 49.8089 27.9717L49.5818 29.0645C49.5291 29.3261 49.5028 29.5253 49.5028 29.6586C49.5028 29.8396 49.5785 29.9202 49.7513 29.9202C49.8385 29.9202 49.9405 29.8955 50.0541 29.8462L49.6246 30.4929C49.4814 30.5258 49.3925 30.5324 49.33 30.5324L49.3267 30.5357Z" fill="url(#paint31_linear_734_589)"></path>
      <path d="M51.7582 30.5868C51.3632 30.5868 51.0439 30.4437 50.8069 30.1606C50.5733 29.8808 50.4531 29.504 50.4531 29.0399C50.4531 28.3372 50.6835 27.7365 51.1377 27.2543C51.5903 26.7738 52.1564 26.5286 52.8163 26.5286C53.0089 26.5286 53.2458 26.5533 53.5273 26.6059C53.5717 26.6092 53.6128 26.6109 53.6523 26.6109C53.8548 26.6109 53.9979 26.5631 54.1757 26.4825L53.7198 29.1436C53.6671 29.4135 53.6408 29.5945 53.6408 29.6867C53.6408 29.8496 53.7198 29.922 53.8959 29.922C53.9831 29.922 54.0851 29.8973 54.1987 29.8479L53.7692 30.4947C53.6309 30.5276 53.5421 30.5342 53.4746 30.5342C52.9414 30.5342 52.8295 30.2017 52.8295 29.9203C52.8295 29.8298 52.8492 29.6899 52.892 29.4925L53.3397 27.2955C53.1636 27.2231 52.9447 27.1556 52.7176 27.1556C52.2716 27.1556 51.9178 27.3202 51.6627 27.6411C51.3813 27.9965 51.2398 28.4343 51.2398 28.9412C51.2398 29.2571 51.3089 29.4941 51.4471 29.6422C51.587 29.7936 51.7466 29.8677 51.9392 29.8677C52.1811 29.8677 52.451 29.7969 52.7406 29.6603L52.2338 30.4848C52.0494 30.5589 51.8964 30.5868 51.7582 30.5868ZM53.0582 26.2587C52.423 26.2587 52.033 25.8802 51.898 25.1314L52.2206 24.9405C52.4592 25.4079 52.7258 25.6218 53.101 25.6218C53.524 25.6218 53.8185 25.4079 53.9996 24.9685L54.3501 25.1001C54.1526 25.8917 53.7099 26.2587 53.0582 26.2587ZM52.683 24.8385L54.304 23.5269L54.7517 24.0749L52.7324 24.9323L52.683 24.8385Z" fill="url(#paint32_linear_734_589)"></path>
      <path d="M54.002 32.1485C54.1073 31.9576 54.1994 31.8655 54.2521 31.775C54.3064 31.6828 54.3574 31.5265 54.4019 31.3109L54.9252 28.7189C55.1901 27.409 55.2461 27.065 55.2461 27.0058C55.2461 26.8873 55.177 26.8001 55.0321 26.7392L55.307 26.6338C55.3234 26.6338 55.3399 26.6338 55.3563 26.6338C55.6476 26.6338 55.855 26.5697 56.0508 26.4512L55.9702 27.2625C56.1808 26.7392 56.5972 26.4956 57.1139 26.4956C57.5171 26.4956 57.8331 26.624 58.0536 26.8791C58.2709 27.1325 58.3811 27.4995 58.3811 27.9685C58.3811 28.6482 58.1836 29.2209 57.7936 29.6718C57.4019 30.1243 56.9033 30.3531 56.3125 30.3531C56.092 30.3531 55.8797 30.3136 55.6805 30.233L55.5127 29.5549L55.149 31.3323C55.1111 31.5199 55.0914 31.6548 55.0914 31.7305C55.0914 31.8391 55.1506 31.9478 55.2675 32.0514L55.3745 32.1469H54.0052L54.002 32.1485ZM55.5259 29.4875C55.7908 29.6306 56.0294 29.7244 56.3108 29.7244C56.6729 29.7244 56.979 29.5697 57.2226 29.2653C57.4678 28.9575 57.5928 28.5659 57.5928 28.0969C57.5928 27.8122 57.5237 27.5834 57.3888 27.4205C57.2538 27.2592 57.0728 27.1786 56.8358 27.1786C56.5429 27.1786 56.3026 27.3053 56.0953 27.5637C55.9373 27.7595 55.8023 28.1281 55.6954 28.658L55.5259 29.4842V29.4875Z" fill="url(#paint33_linear_734_589)"></path>
      <path d="M58.3281 27.9704C58.3281 28.6402 58.1356 29.1948 57.7538 29.6375C57.3704 30.0785 56.8898 30.3007 56.3105 30.3007C56.095 30.3007 55.8909 30.2628 55.6951 30.1838L55.5371 29.4548C55.7411 29.6704 55.9995 29.779 56.3089 29.779C56.6874 29.779 57.005 29.6194 57.2601 29.3001C57.5152 28.9825 57.6419 28.5809 57.6419 28.0971C57.6419 27.7959 57.5695 27.5606 57.4263 27.3862C57.2831 27.2134 57.0857 27.1262 56.8339 27.1262C56.5278 27.1262 56.2694 27.2611 56.0538 27.531C55.8909 27.7334 55.7543 28.107 55.644 28.6501L55.0944 31.3227C55.0549 31.5152 55.0351 31.6518 55.0351 31.7324C55.0351 31.8575 55.0993 31.9793 55.2293 32.0945H54C54.1382 31.999 54.237 31.9019 54.2946 31.8032C54.3522 31.7045 54.4032 31.5432 54.4509 31.3227L54.9742 28.7307C55.1898 27.6709 55.2968 27.0965 55.2968 27.006C55.2968 26.8645 55.2145 26.7592 55.0516 26.69H55.3034L55.3955 26.6983C55.6342 26.6983 55.8613 26.6325 56.0752 26.5024L55.9172 27.2545C56.2134 26.7871 56.6117 26.5518 57.1103 26.5518C57.5004 26.5518 57.7999 26.6736 58.0105 26.9172C58.2195 27.1607 58.3249 27.5129 58.3249 27.9704H58.3281Z" fill="url(#paint34_linear_734_589)"></path>
      <path d="M62.2207 30.5722C61.7385 30.5722 61.3534 30.4422 61.0753 30.1871C60.7939 29.9287 60.6523 29.5749 60.6523 29.1338C60.6523 28.7306 60.7429 28.3258 60.9189 27.9275C61.0967 27.5309 61.3337 27.215 61.6184 26.9912C61.9804 26.6999 62.4165 26.5518 62.9168 26.5518C63.1966 26.5518 63.427 26.6176 63.6031 26.7459C63.7841 26.8793 63.8762 27.0553 63.8762 27.2693C63.8762 27.4355 63.8203 27.5737 63.7084 27.6758C63.5998 27.7761 63.4566 27.8288 63.2871 27.8288C63.1735 27.8288 63.06 27.8025 62.9464 27.7482C63.0254 27.6017 63.0666 27.5293 63.0666 27.4273C63.0666 27.3598 63.0369 27.3038 62.9728 27.2578C62.9053 27.2067 62.8181 27.1804 62.7144 27.1804C62.3622 27.1804 62.0676 27.345 61.8158 27.6807C61.5641 28.0164 61.4373 28.4278 61.4373 28.9051C61.4373 29.226 61.5147 29.4778 61.6677 29.6522C61.8208 29.8283 62.0314 29.9139 62.3095 29.9139C62.7012 29.9139 63.1044 29.7493 63.5076 29.4284L63.2723 30.3121C62.9448 30.4932 62.6008 30.5705 62.2207 30.5705V30.5722Z" fill="url(#paint35_linear_734_589)"></path>
      <path d="M65.2914 30.587C64.8964 30.587 64.5771 30.4438 64.3401 30.1607C64.1065 29.881 63.9863 29.5041 63.9863 29.04C63.9863 28.3373 64.2167 27.7366 64.6709 27.2545C65.1235 26.7739 65.6896 26.5287 66.3495 26.5287C66.5421 26.5287 66.7791 26.5534 67.0605 26.6061C67.1033 26.6094 67.146 26.611 67.1855 26.611C67.388 26.611 67.5311 26.5633 67.7089 26.4826L67.253 29.1437C67.2004 29.4136 67.174 29.5946 67.174 29.6868C67.174 29.8497 67.253 29.9221 67.4291 29.9221C67.5163 29.9221 67.6184 29.8974 67.7319 29.8481L67.3024 30.4948C67.1641 30.5277 67.0753 30.5343 67.0078 30.5343C66.4746 30.5343 66.3627 30.2019 66.3627 29.9205C66.3627 29.83 66.3841 29.6868 66.4252 29.4926L66.8729 27.2956C66.6968 27.2232 66.4779 27.1557 66.2508 27.1557C65.8048 27.1557 65.451 27.3203 65.1959 27.6412C64.9145 27.9967 64.773 28.4344 64.773 28.9413C64.773 29.2573 64.8421 29.4942 64.9803 29.6423C65.1202 29.7937 65.2798 29.8678 65.4724 29.8678C65.7143 29.8678 65.9842 29.797 66.2738 29.6604L65.767 30.4849C65.5826 30.559 65.4296 30.587 65.2914 30.587ZM65.948 26.0416L67.569 24.73L68.0166 25.278L65.9974 26.1354L65.948 26.0416Z" fill="url(#paint36_linear_734_589)"></path>
      <path d="M71.3009 30.5358C70.8796 30.5358 70.6574 30.3185 70.6574 29.9071C70.6574 29.8182 70.6821 29.6586 70.7282 29.4299L71.0244 27.9372C71.0754 27.6937 71.0853 27.5999 71.0853 27.562C71.0853 27.2839 70.9109 27.1489 70.5521 27.1489C70.1934 27.1489 69.8757 27.3086 69.6256 27.6344C69.4511 27.8582 69.2997 28.2845 69.178 28.9L69.0282 29.6405C68.9904 29.8363 68.9706 29.9713 68.9706 30.0421C68.9706 30.1507 69.0299 30.2576 69.1467 30.363L67.8828 30.4584C67.9865 30.2741 68.0803 30.1819 68.133 30.0865C68.1873 29.9877 68.2383 29.8298 68.2827 29.6175L68.4473 28.788C68.6694 27.6673 68.783 27.0699 68.7846 27.0124C68.7846 26.8939 68.7139 26.805 68.5707 26.7375L68.8472 26.6338C68.8636 26.6338 68.8817 26.6338 68.8966 26.6338C69.1911 26.6338 69.3985 26.5697 69.5877 26.4512L69.5071 27.2625C69.8379 26.7375 70.3267 26.4956 70.873 26.4956C71.1791 26.4956 71.4227 26.5647 71.5971 26.698C71.7781 26.8363 71.8703 27.0337 71.8703 27.2822C71.8703 27.432 71.8456 27.6311 71.7962 27.8879L71.5543 29.0645C71.4967 29.3525 71.4671 29.5516 71.4671 29.6586C71.4671 29.8396 71.5461 29.9203 71.7222 29.9203C71.8078 29.9203 71.9065 29.8956 72.0184 29.8462L71.5856 30.493C71.4408 30.5259 71.3568 30.5325 71.3009 30.5325V30.5358Z" fill="url(#paint37_linear_734_589)"></path>
      <path d="M75.5865 30.5357C75.1685 30.5357 74.9479 30.3185 74.9479 29.9071C74.9479 29.7886 74.9677 29.6322 75.0105 29.4282L75.3001 28.0162C75.3462 27.8039 75.3692 27.6475 75.3692 27.5521C75.3692 27.2608 75.2113 27.1242 74.8722 27.1242C74.4756 27.1242 74.1597 27.2838 73.9095 27.6097C73.7943 27.7627 73.7022 27.9405 73.6363 28.138C73.5672 28.3437 73.48 28.7271 73.3714 29.2932L73.3056 29.6405C73.2677 29.8396 73.248 29.9729 73.248 30.042C73.248 30.1506 73.3072 30.2576 73.424 30.3629L72.1602 30.4584C72.2638 30.2741 72.3576 30.1819 72.4103 30.0864C72.4646 29.9877 72.5156 29.8297 72.5601 29.6158L73.1904 26.5038C73.3385 25.7682 73.4125 25.3633 73.4125 25.2992C73.4125 25.1872 73.3352 25.0786 73.1838 24.975L73.5129 24.8746C73.7828 24.8746 74.0214 24.812 74.2271 24.6919L73.7861 27.269C74.1054 26.7391 74.5908 26.4939 75.1388 26.4939C75.8136 26.4939 76.1575 26.7671 76.1575 27.3052C76.1575 27.4583 76.1279 27.6821 76.0687 27.9717L75.8416 29.0645C75.7889 29.3261 75.7626 29.5253 75.7626 29.6586C75.7626 29.8396 75.8383 29.9202 76.0111 29.9202C76.0983 29.9202 76.2003 29.8955 76.3139 29.8462L75.8843 30.4929C75.7412 30.5258 75.6523 30.5324 75.5898 30.5324L75.5865 30.5357Z" fill="url(#paint38_linear_734_589)"></path>
      <path d="M81.6974 30.5358C81.2827 30.5358 81.0638 30.3219 81.0638 29.9154C81.0638 29.8101 81.0835 29.6603 81.123 29.4612L81.5575 27.3202C81.3995 27.2099 81.179 27.1276 80.919 27.1276C80.5256 27.1276 80.1833 27.284 79.8986 27.5934C79.6041 27.9192 79.4559 28.3553 79.4559 28.8902C79.4559 29.1732 79.5185 29.3954 79.6501 29.5665C79.7785 29.7344 79.9464 29.815 80.1619 29.815C80.422 29.815 80.6919 29.7459 80.9634 29.6126L80.4615 30.4404C80.2706 30.5062 80.1208 30.5309 79.9891 30.5309C79.5909 30.5309 79.2667 30.3877 79.0264 30.1063C78.7878 29.8266 78.666 29.4464 78.666 28.9774C78.666 28.2977 78.8964 27.7086 79.3539 27.2264C79.8098 26.7458 80.3627 26.5006 80.9996 26.5006C81.2432 26.5006 81.4966 26.5484 81.7517 26.6422V26.3509L80.259 26.234L80.2936 25.7107L81.9294 25.6663C81.9212 25.4787 81.9442 25.3437 81.9442 25.3026C81.9442 25.2005 81.8669 25.0903 81.7138 24.9767L82.0446 24.878C82.3129 24.878 82.5531 24.8154 82.7588 24.6953L82.6371 25.7304L83.2739 25.6646L83.2443 26.1863L82.4939 26.2307L81.9508 29.1123C81.8965 29.3789 81.8669 29.5698 81.8669 29.6801C81.8669 29.848 81.9459 29.9237 82.122 29.9237C82.2042 29.9237 82.3046 29.899 82.4182 29.8496L81.9887 30.4963C81.8438 30.5293 81.7566 30.5358 81.6941 30.5358H81.6974Z" fill="url(#paint39_linear_734_589)"></path>
      <path d="M84.1312 30.5868C83.7362 30.5868 83.417 30.4436 83.18 30.1605C82.9463 29.8808 82.8262 29.5039 82.8262 29.0398C82.8262 28.3371 83.0566 27.7364 83.5108 27.2542C83.9633 26.7737 84.5295 26.5285 85.1894 26.5285C85.3819 26.5285 85.6189 26.5532 85.9003 26.6058C85.9431 26.6091 85.9859 26.6108 86.0254 26.6108C86.2278 26.6108 86.371 26.5631 86.5487 26.4824L86.0929 29.1435C86.0402 29.4134 86.0139 29.5944 86.0139 29.6866C86.0139 29.8495 86.0929 29.9219 86.2689 29.9219C86.3562 29.9219 86.4582 29.8972 86.5717 29.8478L86.1422 30.4946C86.004 30.5275 85.9151 30.5341 85.8477 30.5341C85.3144 30.5341 85.2025 30.2017 85.2025 29.9203C85.2025 29.8297 85.2223 29.6899 85.2651 29.4924L85.7127 27.2954C85.5366 27.223 85.3177 27.1555 85.0906 27.1555C84.6463 27.1555 84.2908 27.3201 84.0358 27.641C83.7543 27.9965 83.6128 28.4342 83.6128 28.9411C83.6128 29.257 83.6819 29.494 83.8202 29.6421C83.96 29.7935 84.1197 29.8676 84.3122 29.8676C84.5541 29.8676 84.824 29.7968 85.1137 29.6602L84.6068 30.4847C84.4225 30.5588 84.2694 30.5868 84.1312 30.5868Z" fill="url(#paint40_linear_734_589)"></path>
      <path d="M92.4486 30.5361C92.0323 30.5361 91.8117 30.3221 91.8117 29.9156C91.8117 29.7906 91.8315 29.6276 91.871 29.4302L92.1787 27.9293C92.2149 27.7631 92.233 27.6347 92.233 27.5475C92.233 27.4307 92.1902 27.3385 92.103 27.2644C92.0125 27.1887 91.894 27.1509 91.7508 27.1509C91.4085 27.1509 91.109 27.299 90.8589 27.5919C90.7387 27.7335 90.6532 27.875 90.6038 28.0099C90.5528 28.1515 90.4837 28.4197 90.3997 28.8147L90.2286 29.6425C90.1907 29.8317 90.171 29.9667 90.171 30.044C90.171 30.1526 90.2302 30.2596 90.3471 30.3649L89.0832 30.4604C89.1869 30.2711 89.2823 30.1773 89.3366 30.0851C89.3909 29.9897 89.4419 29.8334 89.4831 29.6194L89.8122 27.9984C89.855 27.7845 89.8764 27.6265 89.8764 27.531C89.8764 27.4126 89.8353 27.3237 89.748 27.2562C89.6592 27.1838 89.539 27.1492 89.3893 27.1492C89.047 27.1492 88.7458 27.3023 88.4891 27.6067C88.3854 27.7318 88.3031 27.8766 88.2422 28.0412C88.183 28.1877 88.1172 28.4444 88.0431 28.813L87.872 29.6425C87.8341 29.8317 87.8144 29.9667 87.8144 30.044C87.8144 30.1526 87.8736 30.2596 87.9904 30.3649L86.7266 30.4604C86.8319 30.2744 86.924 30.1839 86.9767 30.0901C87.031 29.993 87.082 29.835 87.1265 29.6194L87.291 28.79C87.3733 28.372 87.6251 27.0999 87.6268 27.0143C87.6268 26.8958 87.556 26.8069 87.4128 26.7395L87.6893 26.6358C87.7058 26.6358 87.7239 26.6358 87.7387 26.6358C88.0332 26.6358 88.2406 26.5716 88.4315 26.4531L88.3509 27.2644C88.6701 26.7395 89.1572 26.4976 89.7085 26.4976C90.3043 26.4976 90.6252 26.7724 90.6614 27.3122C90.9691 26.7625 91.4596 26.4976 92.0273 26.4976C92.3285 26.4976 92.5704 26.5667 92.7448 26.7C92.9259 26.8382 93.0164 27.0324 93.0164 27.276C93.0164 27.4274 92.9752 27.7038 92.8946 28.1005L92.7004 29.0648C92.6461 29.3298 92.6165 29.5289 92.6165 29.6589C92.6165 29.8399 92.6922 29.9206 92.865 29.9206C92.9604 29.9206 93.0592 29.8959 93.1579 29.8482L92.7317 30.4933C92.5918 30.5262 92.5095 30.5328 92.4486 30.5328V30.5361Z" fill="url(#paint41_linear_734_589)"></path>
      <path d="M100.994 30.5361C100.577 30.5361 100.357 30.3221 100.357 29.9156C100.357 29.7906 100.376 29.6276 100.416 29.4302L100.724 27.9293C100.76 27.7631 100.778 27.6347 100.778 27.5475C100.778 27.4307 100.735 27.3385 100.648 27.2644C100.557 27.1887 100.439 27.1509 100.296 27.1509C99.9535 27.1509 99.6539 27.299 99.4038 27.5919C99.2837 27.7335 99.1981 27.875 99.1487 28.0099C99.0977 28.1515 99.0286 28.4197 98.9447 28.8147L98.7735 29.6425C98.7357 29.8317 98.7159 29.9667 98.7159 30.044C98.7159 30.1526 98.7751 30.2596 98.892 30.3649L97.6281 30.4604C97.7318 30.2711 97.8272 30.1773 97.8815 30.0851C97.9359 29.9897 97.9869 29.8334 98.028 29.6194L98.3571 27.9984C98.3999 27.7845 98.4213 27.6265 98.4213 27.531C98.4213 27.4126 98.3802 27.3237 98.293 27.2562C98.2041 27.1838 98.084 27.1492 97.9342 27.1492C97.5919 27.1492 97.2907 27.3023 97.034 27.6067C96.9303 27.7318 96.8481 27.8766 96.7872 28.0412C96.7279 28.1877 96.6621 28.4444 96.588 28.813L96.4169 29.6425C96.379 29.8317 96.3593 29.9667 96.3593 30.044C96.3593 30.1526 96.4185 30.2596 96.5354 30.3649L95.2715 30.4604C95.3768 30.2744 95.469 30.1839 95.5216 30.0901C95.5759 29.993 95.627 29.835 95.6714 29.6194L95.836 28.79C95.9182 28.372 96.17 27.0999 96.1717 27.0143C96.1717 26.8958 96.1009 26.8069 95.9577 26.7395L96.2342 26.6358C96.2507 26.6358 96.2688 26.6358 96.2836 26.6358C96.5782 26.6358 96.7855 26.5716 96.9764 26.4531L96.8958 27.2644C97.215 26.7395 97.7022 26.4976 98.2535 26.4976C98.8492 26.4976 99.1701 26.7724 99.2063 27.3122C99.5141 26.7625 100.004 26.4976 100.572 26.4976C100.873 26.4976 101.115 26.5667 101.29 26.7C101.471 26.8382 101.561 27.0324 101.561 27.276C101.561 27.4274 101.52 27.7038 101.44 28.1005L101.245 29.0648C101.191 29.3298 101.161 29.5289 101.161 29.6589C101.161 29.8399 101.237 29.9206 101.41 29.9206C101.505 29.9206 101.604 29.8959 101.703 29.8482L101.277 30.4933C101.137 30.5262 101.054 30.5328 100.994 30.5328V30.5361Z" fill="url(#paint42_linear_734_589)"></path>
      <path d="M103.388 30.5868C102.509 30.5868 102.062 30.1425 102.062 29.2669C102.062 28.895 102.136 28.5149 102.277 28.1413C102.419 27.7694 102.612 27.4518 102.85 27.2C103.255 26.7688 103.75 26.5516 104.326 26.5516C104.627 26.5516 104.871 26.624 105.055 26.7672C105.243 26.9136 105.338 27.1111 105.338 27.3547C105.338 27.7793 105.105 28.1479 104.644 28.454C104.193 28.7518 103.566 28.9543 102.781 29.053C102.819 29.313 102.878 29.4973 102.995 29.6553C103.13 29.838 103.339 29.9318 103.617 29.9318C104.084 29.9318 104.509 29.7458 104.878 29.3789L104.748 30.1935C104.256 30.4667 103.808 30.5868 103.392 30.5868H103.388ZM104.103 27.1736C103.838 27.1736 103.58 27.3135 103.34 27.59C103.094 27.8714 102.937 28.2121 102.872 28.607C103.299 28.4803 103.731 28.3355 104.098 28.115C104.384 27.9438 104.529 27.7529 104.529 27.5489C104.529 27.4353 104.491 27.3481 104.412 27.2806C104.331 27.2115 104.226 27.1753 104.101 27.1753L104.103 27.1736ZM105.501 26.1237C105.159 26.1072 104.795 25.8604 104.422 25.3897C104.308 25.5823 104.076 25.7501 103.805 25.8917C103.54 26.0299 103.322 26.099 103.16 26.099L104.525 24.6426L105.608 26.127L105.501 26.122V26.1237Z" fill="url(#paint43_linear_734_589)"></path>
      <path d="M108.446 30.5723C107.839 30.5723 107.531 30.2974 107.531 29.7577C107.531 29.6063 107.569 29.3413 107.645 28.971L107.803 28.1992C107.941 27.5113 108.01 27.1213 108.01 27.0406C108.01 26.937 107.938 26.8349 107.795 26.7345L107.651 26.6358H108.002C108.158 26.6374 108.273 26.6325 108.346 26.621C108.505 26.5996 108.663 26.5436 108.813 26.4531L108.431 28.7867C108.351 29.185 108.311 29.4367 108.311 29.5355C108.311 29.756 108.41 29.8597 108.622 29.8597C108.983 29.8597 109.343 29.6342 109.694 29.1883C110.048 28.7406 110.225 28.2765 110.225 27.8108C110.225 27.434 110.077 27.2595 109.761 27.2595C109.625 27.2595 109.514 27.3056 109.424 27.401L109.337 27.4932L109.328 27.2118C109.328 27.0061 109.401 26.8366 109.541 26.7115C109.679 26.5881 109.863 26.5255 110.09 26.5255C110.354 26.5255 110.566 26.616 110.722 26.7921C110.879 26.9682 110.958 27.2036 110.958 27.4948C110.958 27.875 110.864 28.2848 110.676 28.711C110.489 29.1372 110.242 29.5108 109.939 29.8251C109.465 30.3188 108.96 30.5706 108.441 30.5706L108.446 30.5723Z" fill="url(#paint44_linear_734_589)"></path>
      <path d="M112.5 30.5868C112.105 30.5868 111.786 30.4436 111.549 30.1606C111.315 29.8808 111.195 29.5039 111.195 29.0398C111.195 28.3371 111.426 27.7365 111.88 27.2543C112.332 26.7737 112.899 26.5285 113.559 26.5285C113.751 26.5285 113.988 26.5532 114.269 26.6059C114.312 26.6092 114.355 26.6108 114.395 26.6108C114.597 26.6108 114.74 26.5631 114.918 26.4825L114.462 29.1435C114.409 29.4134 114.383 29.5944 114.383 29.6866C114.383 29.8495 114.462 29.9219 114.638 29.9219C114.725 29.9219 114.827 29.8972 114.941 29.8479L114.511 30.4946C114.373 30.5275 114.284 30.5341 114.217 30.5341C113.684 30.5341 113.572 30.2017 113.572 29.9203C113.572 29.8298 113.591 29.6899 113.634 29.4924L114.082 27.2954C113.906 27.223 113.687 27.1555 113.46 27.1555C113.014 27.1555 112.66 27.3201 112.405 27.641C112.123 27.9965 111.982 28.4342 111.982 28.9411C111.982 29.2571 112.051 29.4941 112.189 29.6422C112.329 29.7936 112.489 29.8676 112.681 29.8676C112.923 29.8676 113.193 29.7969 113.483 29.6603L112.976 30.4848C112.792 30.5588 112.639 30.5868 112.5 30.5868ZM112.502 25.3585L113.081 24.7314L114.241 26.048L114.182 26.1336L112.502 25.3585Z" fill="url(#paint45_linear_734_589)"></path>
      <path d="M118.405 30.5278C118.038 30.5278 117.64 30.4471 117.22 30.2908L117.08 29.4169C117.264 29.4663 117.396 29.5601 117.561 29.6457C117.888 29.8185 118.193 29.9057 118.467 29.9057C118.698 29.9057 118.885 29.8514 119.025 29.7428C119.16 29.6375 119.224 29.5009 119.224 29.3264C119.224 29.2162 119.18 29.1273 119.089 29.05C118.994 28.9693 118.803 28.8673 118.52 28.7472C117.952 28.5135 117.664 28.1695 117.664 27.7252C117.664 27.3714 117.807 27.0817 118.091 26.8661C118.367 26.6538 118.732 26.5469 119.177 26.5469C119.542 26.5469 119.861 26.6127 120.121 26.7411L120.014 27.5754C119.749 27.3088 119.481 27.1689 119.103 27.1689C118.908 27.1689 118.752 27.2134 118.637 27.3006C118.523 27.3862 118.471 27.4931 118.471 27.6264C118.471 27.7367 118.513 27.8272 118.602 27.9046C118.696 27.9868 118.874 28.0807 119.131 28.186C119.723 28.4197 120.023 28.7768 120.023 29.2474C120.023 29.626 119.87 29.9386 119.568 30.1756C119.27 30.406 118.879 30.5245 118.403 30.5245L118.405 30.5278Z" fill="url(#paint46_linear_734_589)"></path>
      <path d="M122.055 31.8986C121.874 31.8986 121.66 31.8196 121.66 31.4444C121.66 31.237 121.711 31.0659 121.81 30.9359C121.914 30.8009 122.047 30.7334 122.205 30.7334C122.38 30.7334 122.587 30.8108 122.587 31.1811C122.587 31.3802 122.536 31.5497 122.434 31.6863C122.329 31.8278 122.202 31.9002 122.057 31.9002L122.055 31.8986ZM121.641 30.5722C121.353 30.5722 121.119 30.4965 120.949 30.35C120.777 30.1986 120.689 29.9929 120.689 29.7345C120.689 29.5765 120.726 29.3247 120.796 28.9857L121.068 27.6939C121.142 27.3335 121.182 27.0998 121.182 27.001C121.182 26.8875 121.111 26.8035 120.966 26.7427L121.241 26.6373C121.257 26.6373 121.274 26.6373 121.29 26.6373C121.581 26.6373 121.79 26.5732 121.988 26.4547L121.552 28.9857C121.504 29.226 121.479 29.3971 121.479 29.4942C121.479 29.7625 121.652 29.8925 122.006 29.8925C122.338 29.8925 122.626 29.751 122.865 29.4696C123.03 29.277 123.155 28.9791 123.237 28.5825L123.303 28.2666C123.495 27.3697 123.536 27.085 123.536 27.0043C123.536 26.8858 123.466 26.7986 123.321 26.7377L123.596 26.6324C123.612 26.6324 123.63 26.6324 123.645 26.6324C123.938 26.6324 124.147 26.5682 124.343 26.4497L124.313 27.0208C124.384 26.8924 124.476 26.82 124.514 26.7459C124.292 26.4728 124.289 26.2671 124.44 26.0301C124.522 25.9017 124.634 25.8145 124.776 25.7668C124.863 25.7552 124.929 25.752 124.981 25.752C125.08 25.752 125.128 25.7684 125.174 25.7947C125.306 25.8672 125.381 25.984 125.396 26.1436C125.411 26.2967 125.365 26.4563 125.261 26.6176C125.047 26.95 124.697 27.2051 124.216 27.3746L123.885 29.124C123.813 29.486 123.798 29.6094 123.798 29.6489C123.798 29.8365 123.874 29.9188 124.047 29.9188C124.152 29.9188 124.252 29.8941 124.346 29.8464L123.92 30.4915C123.78 30.5244 123.698 30.531 123.64 30.531C123.453 30.531 123.296 30.4734 123.174 30.3632C123.051 30.2463 122.988 30.0982 122.988 29.9188C122.72 30.3121 122.235 30.5672 121.644 30.5672L121.641 30.5722Z" fill="url(#paint47_linear_734_589)"></path>
      <path d="M129.873 30.5358C129.452 30.5358 129.23 30.3185 129.23 29.9071C129.23 29.8182 129.254 29.6586 129.3 29.4299L129.597 27.9372C129.648 27.6937 129.658 27.5999 129.658 27.562C129.658 27.2839 129.483 27.1489 129.124 27.1489C128.766 27.1489 128.448 27.3086 128.198 27.6344C128.023 27.8582 127.872 28.2845 127.75 28.9L127.6 29.6405C127.563 29.8363 127.543 29.9713 127.543 30.0421C127.543 30.1507 127.602 30.2576 127.719 30.363L126.455 30.4584C126.559 30.2741 126.653 30.1819 126.705 30.0865C126.76 29.9877 126.811 29.8298 126.855 29.6175L127.02 28.788C127.242 27.6673 127.355 27.0699 127.357 27.0124C127.357 26.8939 127.286 26.805 127.143 26.7375L127.419 26.6338C127.436 26.6338 127.454 26.6338 127.469 26.6338C127.763 26.6338 127.971 26.5697 128.16 26.4512L128.079 27.2625C128.41 26.7375 128.899 26.4956 129.445 26.4956C129.751 26.4956 129.995 26.5647 130.169 26.698C130.35 26.8363 130.443 27.0337 130.443 27.2822C130.443 27.432 130.418 27.6311 130.369 27.8879L130.127 29.0645C130.069 29.3525 130.039 29.5516 130.039 29.6586C130.039 29.8396 130.118 29.9203 130.294 29.9203C130.38 29.9203 130.479 29.8956 130.591 29.8462L130.158 30.493C130.013 30.5259 129.929 30.5325 129.873 30.5325V30.5358Z" fill="url(#paint48_linear_734_589)"></path>
      <path d="M132.008 32.2142C131.629 32.2142 131.317 32.1385 131.08 31.9887C130.836 31.834 130.711 31.63 130.711 31.3848C130.711 31.2186 130.764 31.0803 130.871 30.975C130.974 30.8697 131.112 30.817 131.279 30.817C131.396 30.817 131.516 30.8466 131.637 30.9059C131.544 31.0589 131.496 31.133 131.496 31.2334C131.496 31.3403 131.55 31.4292 131.661 31.5033C131.777 31.5822 131.93 31.6217 132.115 31.6217C132.459 31.6217 132.724 31.4687 132.924 31.156C133.076 30.9223 133.219 30.4714 133.352 29.8131L133.861 27.2788C133.695 27.2064 133.479 27.1405 133.245 27.1405C132.837 27.1405 132.493 27.2985 132.222 27.6079C131.948 27.919 131.81 28.3139 131.81 28.7829C131.81 29.0528 131.876 29.2734 132.006 29.4379C132.134 29.5992 132.299 29.6782 132.51 29.6782C132.72 29.6782 133 29.6074 133.313 29.4692L132.806 30.3101C132.595 30.3743 132.437 30.3957 132.307 30.3957C131.929 30.3957 131.616 30.2575 131.379 29.9826C131.144 29.7095 131.025 29.3491 131.025 28.9097C131.025 28.2399 131.254 27.6672 131.707 27.208C132.156 26.7505 132.717 26.5185 133.374 26.5185C133.514 26.5185 133.732 26.5415 134.025 26.5892C134.118 26.6041 134.183 26.6106 134.226 26.6106C134.353 26.6106 134.511 26.5613 134.698 26.4658L134.113 29.7572C133.964 30.4895 133.825 30.9733 133.678 31.235C133.331 31.8834 132.77 32.2109 132.008 32.2109V32.2142Z" fill="url(#paint49_linear_734_589)"></path>
      <path d="M138.17 30.5357C137.752 30.5357 137.532 30.3185 137.532 29.9071C137.532 29.7886 137.552 29.6322 137.594 29.4282L137.884 28.0162C137.93 27.8039 137.953 27.6475 137.953 27.5521C137.953 27.2608 137.795 27.1242 137.456 27.1242C137.06 27.1242 136.744 27.2838 136.494 27.6097C136.378 27.7627 136.286 27.9405 136.22 28.138C136.151 28.3437 136.064 28.7271 135.955 29.2932L135.89 29.6405C135.852 29.8396 135.832 29.9729 135.832 30.042C135.832 30.1506 135.891 30.2576 136.008 30.3629L134.744 30.4584C134.848 30.2741 134.942 30.1819 134.994 30.0864C135.049 29.9877 135.1 29.8297 135.144 29.6158L135.774 26.5038C135.922 25.7682 135.997 25.3633 135.997 25.2992C135.997 25.1872 135.919 25.0786 135.768 24.975L136.097 24.8746C136.367 24.8746 136.605 24.812 136.811 24.6919L136.37 27.269C136.689 26.7391 137.175 26.4939 137.723 26.4939C138.398 26.4939 138.742 26.7671 138.742 27.3052C138.742 27.4583 138.712 27.6821 138.653 27.9717L138.426 29.0645C138.373 29.3261 138.347 29.5253 138.347 29.6586C138.347 29.8396 138.422 29.9202 138.595 29.9202C138.682 29.9202 138.784 29.8955 138.898 29.8462L138.468 30.4929C138.325 30.5258 138.236 30.5324 138.174 30.5324L138.17 30.5357Z" fill="url(#paint50_linear_734_589)"></path>
      <path d="M140.049 30.5359C139.631 30.5359 139.41 30.322 139.41 29.9155C139.41 29.8184 139.432 29.6538 139.476 29.4218L139.71 28.2616C139.924 27.1886 139.947 27.0174 139.947 26.9928C139.947 26.8743 139.878 26.787 139.733 26.7262L140.031 26.6208C140.292 26.6208 140.534 26.5583 140.746 26.4382L140.305 29.0663C140.248 29.3609 140.22 29.56 140.22 29.6604C140.22 29.8414 140.296 29.9221 140.463 29.9221C140.556 29.9221 140.658 29.8974 140.766 29.8497L140.338 30.4948C140.194 30.5277 140.108 30.5343 140.047 30.5343L140.049 30.5359ZM140.602 26.1765C140.414 26.1765 140.192 26.0909 140.192 25.6877C140.192 25.4886 140.243 25.3175 140.342 25.1825C140.444 25.041 140.574 24.9702 140.73 24.9702C140.914 24.9702 141.133 25.0558 141.133 25.459C141.133 25.6548 141.084 25.8243 140.985 25.9626C140.885 26.1041 140.756 26.1765 140.602 26.1765Z" fill="url(#paint51_linear_734_589)"></path>
      <path d="M142.189 31.8984C142.008 31.8984 141.794 31.8194 141.794 31.4442C141.794 31.2368 141.844 31.0657 141.944 30.9357C142.046 30.8024 142.178 30.7333 142.341 30.7333C142.515 30.7333 142.722 30.8106 142.722 31.1809C142.722 31.3784 142.671 31.5479 142.569 31.6861C142.464 31.8276 142.337 31.9 142.191 31.9L142.189 31.8984ZM142.446 30.5868C141.567 30.5868 141.121 30.1425 141.121 29.2669C141.121 28.895 141.194 28.5149 141.335 28.1413C141.477 27.7677 141.669 27.4518 141.908 27.2C142.313 26.7688 142.808 26.5516 143.384 26.5516C143.685 26.5516 143.929 26.624 144.113 26.7672C144.301 26.9136 144.396 27.1111 144.396 27.3547C144.396 27.7793 144.162 28.1479 143.702 28.454C143.251 28.7518 142.624 28.9543 141.839 29.053C141.876 29.313 141.936 29.4973 142.053 29.6553C142.187 29.838 142.396 29.9318 142.675 29.9318C143.142 29.9318 143.567 29.7458 143.935 29.3789L143.805 30.1935C143.313 30.4667 142.866 30.5868 142.449 30.5868H142.446ZM143.16 27.1736C142.895 27.1736 142.638 27.3135 142.398 27.59C142.153 27.8714 141.995 28.2121 141.929 28.607C142.357 28.4803 142.788 28.3355 143.155 28.115C143.442 27.9438 143.586 27.7529 143.586 27.5489C143.586 27.4353 143.548 27.3481 143.469 27.2806C143.389 27.2115 143.284 27.1753 143.158 27.1753L143.16 27.1736ZM144.559 26.1237C144.217 26.1072 143.853 25.8604 143.479 25.3897C143.366 25.5823 143.134 25.7501 142.862 25.8917C142.597 26.0299 142.38 26.099 142.217 26.099L143.583 24.6426L144.666 26.127L144.559 26.122V26.1237Z" fill="url(#paint52_linear_734_589)"></path>
      <path d="M143.873 32.1485C143.978 31.9576 144.071 31.8655 144.123 31.775C144.178 31.6828 144.229 31.5265 144.273 31.3109L144.796 28.7189C145.061 27.409 145.117 27.065 145.117 27.0058C145.117 26.8873 145.048 26.8001 144.903 26.7392L145.178 26.6338C145.195 26.6338 145.211 26.6338 145.227 26.6338C145.519 26.6338 145.726 26.5697 145.922 26.4512L145.841 27.2625C146.052 26.7392 146.468 26.4956 146.985 26.4956C147.388 26.4956 147.704 26.624 147.925 26.8791C148.142 27.1325 148.252 27.4995 148.252 27.9685C148.252 28.6482 148.055 29.2209 147.665 29.6718C147.273 30.1243 146.774 30.3531 146.184 30.3531C145.963 30.3531 145.751 30.3136 145.552 30.233L145.384 29.5549L145.02 31.3323C144.982 31.5199 144.962 31.6548 144.962 31.7305C144.962 31.8391 145.022 31.9478 145.139 32.0514L145.246 32.1469H143.876L143.873 32.1485ZM145.397 29.4875C145.662 29.6306 145.901 29.7244 146.182 29.7244C146.544 29.7244 146.85 29.5697 147.094 29.2653C147.339 28.9575 147.464 28.5659 147.464 28.0969C147.464 27.8122 147.395 27.5834 147.26 27.4205C147.125 27.2592 146.944 27.1786 146.707 27.1786C146.414 27.1786 146.174 27.3053 145.966 27.5637C145.808 27.7595 145.675 28.1281 145.568 28.658L145.399 29.4842L145.397 29.4875Z" fill="url(#paint53_linear_734_589)"></path>
    </g>
  </g>
  <defs>
    <linearGradient id="paint0_linear_734_589" x1="12.5135" y1="30.3611" x2="16.394" y2="32.1632" gradientUnits="userSpaceOnUse">
      <stop stop-color="#E4C67F"></stop>
      <stop offset="1" stop-color="#956E30"></stop>
    </linearGradient>
    <linearGradient id="paint1_linear_734_589" x1="17.5943" y1="31.7041" x2="11.8838" y2="31.7041" gradientUnits="userSpaceOnUse">
      <stop stop-color="#E4C67F"></stop>
      <stop offset="1" stop-color="#956E30"></stop>
    </linearGradient>
    <linearGradient id="paint2_linear_734_589" x1="17.5273" y1="22.6" x2="17.5273" y2="24.0794" gradientUnits="userSpaceOnUse">
      <stop stop-color="#E4C67F"></stop>
      <stop offset="1" stop-color="#956E30"></stop>
    </linearGradient>
    <linearGradient id="paint3_linear_734_589" x1="5.75031" y1="14.9314" x2="16.4094" y2="14.9314" gradientUnits="userSpaceOnUse">
      <stop stop-color="#E4C67F"></stop>
      <stop offset="1" stop-color="#956E30"></stop>
    </linearGradient>
    <linearGradient id="paint4_linear_734_589" x1="22.5467" y1="30.3611" x2="18.6646" y2="32.1632" gradientUnits="userSpaceOnUse">
      <stop stop-color="#E4C67F"></stop>
      <stop offset="1" stop-color="#956E30"></stop>
    </linearGradient>
    <linearGradient id="paint5_linear_734_589" x1="18.6677" y1="31.7041" x2="24.3766" y2="31.7041" gradientUnits="userSpaceOnUse">
      <stop stop-color="#E4C67F"></stop>
      <stop offset="1" stop-color="#956E30"></stop>
    </linearGradient>
    <linearGradient id="paint6_linear_734_589" x1="15.2698" y1="11.2366" x2="12.9593" y2="14.8867" gradientUnits="userSpaceOnUse">
      <stop stop-color="#E4C67F"></stop>
      <stop offset="1" stop-color="#956E30"></stop>
    </linearGradient>
    <linearGradient id="paint7_linear_734_589" x1="4.25301" y1="22.7535" x2="35.6823" y2="22.7535" gradientUnits="userSpaceOnUse">
      <stop stop-color="#E4C67F"></stop>
      <stop offset="1" stop-color="#956E30"></stop>
    </linearGradient>
    <linearGradient id="paint8_linear_734_589" x1="35.204" y1="21.6952" x2="20.3171" y2="21.6952" gradientUnits="userSpaceOnUse">
      <stop stop-color="#E4C67F"></stop>
      <stop offset="1" stop-color="#956E30"></stop>
    </linearGradient>
    <linearGradient id="paint9_linear_734_589" x1="20.9878" y1="10.7299" x2="18.5851" y2="10.7299" gradientUnits="userSpaceOnUse">
      <stop stop-color="#E4C67F"></stop>
      <stop offset="1" stop-color="#956E30"></stop>
    </linearGradient>
    <linearGradient id="paint10_linear_734_589" x1="23.5742" y1="33.0091" x2="16.3496" y2="33.0091" gradientUnits="userSpaceOnUse">
      <stop stop-color="#E4C67F"></stop>
      <stop offset="1" stop-color="#956E30"></stop>
    </linearGradient>
    <linearGradient id="paint11_linear_734_589" x1="16.3633" y1="23.6962" x2="18.7248" y2="23.6962" gradientUnits="userSpaceOnUse">
      <stop stop-color="#E4C67F"></stop>
      <stop offset="1" stop-color="#956E30"></stop>
    </linearGradient>
    <linearGradient id="paint12_linear_734_589" x1="16.8262" y1="23.6929" x2="18.2842" y2="23.6929" gradientUnits="userSpaceOnUse">
      <stop stop-color="#E4C67F"></stop>
      <stop offset="1" stop-color="#956E30"></stop>
    </linearGradient>
    <linearGradient id="paint13_linear_734_589" x1="18.304" y1="10.7233" x2="13.311" y2="11.4622" gradientUnits="userSpaceOnUse">
      <stop stop-color="#E4C67F"></stop>
      <stop offset="1" stop-color="#956E30"></stop>
    </linearGradient>
    <linearGradient id="paint14_linear_734_589" x1="16.3422" y1="32.4232" x2="19.6698" y2="33.3942" gradientUnits="userSpaceOnUse">
      <stop stop-color="#E4C67F"></stop>
      <stop offset="1" stop-color="#956E30"></stop>
    </linearGradient>
    <linearGradient id="paint15_linear_734_589" x1="17.4443" y1="24.5879" x2="17.4443" y2="25.5589" gradientUnits="userSpaceOnUse">
      <stop stop-color="#E4C67F"></stop>
      <stop offset="1" stop-color="#956E30"></stop>
    </linearGradient>
    <linearGradient id="paint16_linear_734_589" x1="17.4688" y1="10.835" x2="17.7469" y2="10.835" gradientUnits="userSpaceOnUse">
      <stop stop-color="#E4C67F"></stop>
      <stop offset="1" stop-color="#956E30"></stop>
    </linearGradient>
    <linearGradient id="paint17_linear_734_589" x1="17.4443" y1="20.4754" x2="17.4443" y2="21.9532" gradientUnits="userSpaceOnUse">
      <stop stop-color="#E4C67F"></stop>
      <stop offset="1" stop-color="#956E30"></stop>
    </linearGradient>
    <linearGradient id="paint18_linear_734_589" x1="17.5724" y1="41.6706" x2="17.5724" y2="37.79" gradientUnits="userSpaceOnUse">
      <stop stop-color="#E4C67F"></stop>
      <stop offset="1" stop-color="#956E30"></stop>
    </linearGradient>
    <linearGradient id="paint19_linear_734_589" x1="43.9331" y1="13.0864" x2="209.14" y2="19.1195" gradientUnits="userSpaceOnUse">
      <stop stop-color="#E3C37F"></stop>
      <stop offset="1" stop-color="#936E31"></stop>
    </linearGradient>
    <linearGradient id="paint20_linear_734_589" x1="43.9726" y1="11.9344" x2="209.179" y2="17.9676" gradientUnits="userSpaceOnUse">
      <stop stop-color="#E3C37F"></stop>
      <stop offset="1" stop-color="#936E31"></stop>
    </linearGradient>
    <linearGradient id="paint21_linear_734_589" x1="43.9934" y1="11.3997" x2="209.2" y2="17.4345" gradientUnits="userSpaceOnUse">
      <stop stop-color="#E3C37F"></stop>
      <stop offset="1" stop-color="#936E31"></stop>
    </linearGradient>
    <linearGradient id="paint22_linear_734_589" x1="43.8451" y1="15.4497" x2="209.052" y2="21.4844" gradientUnits="userSpaceOnUse">
      <stop stop-color="#E3C37F"></stop>
      <stop offset="1" stop-color="#936E31"></stop>
    </linearGradient>
    <linearGradient id="paint23_linear_734_589" x1="43.9597" y1="12.3723" x2="209.166" y2="18.4054" gradientUnits="userSpaceOnUse">
      <stop stop-color="#E3C37F"></stop>
      <stop offset="1" stop-color="#936E31"></stop>
    </linearGradient>
    <linearGradient id="paint24_linear_734_589" x1="43.8631" y1="14.9708" x2="209.07" y2="21.0055" gradientUnits="userSpaceOnUse">
      <stop stop-color="#E3C37F"></stop>
      <stop offset="1" stop-color="#936E31"></stop>
    </linearGradient>
    <linearGradient id="paint25_linear_734_589" x1="43.8761" y1="14.6088" x2="209.083" y2="20.6419" gradientUnits="userSpaceOnUse">
      <stop stop-color="#E3C37F"></stop>
      <stop offset="1" stop-color="#936E31"></stop>
    </linearGradient>
    <linearGradient id="paint26_linear_734_589" x1="43.8891" y1="14.2696" x2="209.096" y2="20.3026" gradientUnits="userSpaceOnUse">
      <stop stop-color="#E3C37F"></stop>
      <stop offset="1" stop-color="#936E31"></stop>
    </linearGradient>
    <linearGradient id="paint27_linear_734_589" x1="43.9124" y1="13.6376" x2="209.119" y2="19.6723" gradientUnits="userSpaceOnUse">
      <stop stop-color="#E3C37F"></stop>
      <stop offset="1" stop-color="#936E31"></stop>
    </linearGradient>
    <linearGradient id="paint28_linear_734_589" x1="43.9427" y1="12.795" x2="209.15" y2="18.8297" gradientUnits="userSpaceOnUse">
      <stop stop-color="#E3C37F"></stop>
      <stop offset="1" stop-color="#936E31"></stop>
    </linearGradient>
    <linearGradient id="paint29_linear_734_589" x1="44.0183" y1="10.7332" x2="209.226" y2="16.7663" gradientUnits="userSpaceOnUse">
      <stop stop-color="#E3C37F"></stop>
      <stop offset="1" stop-color="#936E31"></stop>
    </linearGradient>
    <linearGradient id="paint30_linear_734_589" x1="41.6172" y1="27.87" x2="148.253" y2="27.87" gradientUnits="userSpaceOnUse">
      <stop stop-color="#E3C37F"></stop>
      <stop offset="1" stop-color="#936E31"></stop>
    </linearGradient>
    <linearGradient id="paint31_linear_734_589" x1="41.6167" y1="27.8697" x2="148.252" y2="27.8697" gradientUnits="userSpaceOnUse">
      <stop stop-color="#E3C37F"></stop>
      <stop offset="1" stop-color="#936E31"></stop>
    </linearGradient>
    <linearGradient id="paint32_linear_734_589" x1="41.6174" y1="27.8698" x2="148.253" y2="27.8698" gradientUnits="userSpaceOnUse">
      <stop stop-color="#E3C37F"></stop>
      <stop offset="1" stop-color="#936E31"></stop>
    </linearGradient>
    <linearGradient id="paint33_linear_734_589" x1="41.6165" y1="27.8698" x2="148.252" y2="27.8698" gradientUnits="userSpaceOnUse">
      <stop stop-color="#E3C37F"></stop>
      <stop offset="1" stop-color="#936E31"></stop>
    </linearGradient>
    <linearGradient id="paint34_linear_734_589" x1="41.6162" y1="27.87" x2="148.252" y2="27.87" gradientUnits="userSpaceOnUse">
      <stop stop-color="#E3C37F"></stop>
      <stop offset="1" stop-color="#936E31"></stop>
    </linearGradient>
    <linearGradient id="paint35_linear_734_589" x1="41.6167" y1="27.87" x2="148.252" y2="27.87" gradientUnits="userSpaceOnUse">
      <stop stop-color="#E3C37F"></stop>
      <stop offset="1" stop-color="#936E31"></stop>
    </linearGradient>
    <linearGradient id="paint36_linear_734_589" x1="41.6165" y1="27.8699" x2="148.252" y2="27.8699" gradientUnits="userSpaceOnUse">
      <stop stop-color="#E3C37F"></stop>
      <stop offset="1" stop-color="#936E31"></stop>
    </linearGradient>
    <linearGradient id="paint37_linear_734_589" x1="41.6177" y1="27.8698" x2="148.253" y2="27.8698" gradientUnits="userSpaceOnUse">
      <stop stop-color="#E3C37F"></stop>
      <stop offset="1" stop-color="#936E31"></stop>
    </linearGradient>
    <linearGradient id="paint38_linear_734_589" x1="41.6162" y1="27.8697" x2="148.252" y2="27.8697" gradientUnits="userSpaceOnUse">
      <stop stop-color="#E3C37F"></stop>
      <stop offset="1" stop-color="#936E31"></stop>
    </linearGradient>
    <linearGradient id="paint39_linear_734_589" x1="41.6167" y1="27.8698" x2="148.252" y2="27.8698" gradientUnits="userSpaceOnUse">
      <stop stop-color="#E3C37F"></stop>
      <stop offset="1" stop-color="#936E31"></stop>
    </linearGradient>
    <linearGradient id="paint40_linear_734_589" x1="41.6166" y1="27.8697" x2="148.252" y2="27.8697" gradientUnits="userSpaceOnUse">
      <stop stop-color="#E3C37F"></stop>
      <stop offset="1" stop-color="#936E31"></stop>
    </linearGradient>
    <linearGradient id="paint41_linear_734_589" x1="41.6167" y1="27.8701" x2="148.252" y2="27.8701" gradientUnits="userSpaceOnUse">
      <stop stop-color="#E3C37F"></stop>
      <stop offset="1" stop-color="#936E31"></stop>
    </linearGradient>
    <linearGradient id="paint42_linear_734_589" x1="41.6172" y1="27.8701" x2="148.253" y2="27.8701" gradientUnits="userSpaceOnUse">
      <stop stop-color="#E3C37F"></stop>
      <stop offset="1" stop-color="#936E31"></stop>
    </linearGradient>
    <linearGradient id="paint43_linear_734_589" x1="41.617" y1="27.8698" x2="148.253" y2="27.8698" gradientUnits="userSpaceOnUse">
      <stop stop-color="#E3C37F"></stop>
      <stop offset="1" stop-color="#936E31"></stop>
    </linearGradient>
    <linearGradient id="paint44_linear_734_589" x1="41.6168" y1="27.8701" x2="148.252" y2="27.8701" gradientUnits="userSpaceOnUse">
      <stop stop-color="#E3C37F"></stop>
      <stop offset="1" stop-color="#936E31"></stop>
    </linearGradient>
    <linearGradient id="paint45_linear_734_589" x1="41.6177" y1="27.8698" x2="148.253" y2="27.8698" gradientUnits="userSpaceOnUse">
      <stop stop-color="#E3C37F"></stop>
      <stop offset="1" stop-color="#936E31"></stop>
    </linearGradient>
    <linearGradient id="paint46_linear_734_589" x1="41.6174" y1="27.87" x2="148.253" y2="27.87" gradientUnits="userSpaceOnUse">
      <stop stop-color="#E3C37F"></stop>
      <stop offset="1" stop-color="#936E31"></stop>
    </linearGradient>
    <linearGradient id="paint47_linear_734_589" x1="41.6179" y1="27.8699" x2="148.253" y2="27.8699" gradientUnits="userSpaceOnUse">
      <stop stop-color="#E3C37F"></stop>
      <stop offset="1" stop-color="#936E31"></stop>
    </linearGradient>
    <linearGradient id="paint48_linear_734_589" x1="41.6167" y1="27.8698" x2="148.252" y2="27.8698" gradientUnits="userSpaceOnUse">
      <stop stop-color="#E3C37F"></stop>
      <stop offset="1" stop-color="#936E31"></stop>
    </linearGradient>
    <linearGradient id="paint49_linear_734_589" x1="41.617" y1="27.8696" x2="148.252" y2="27.8696" gradientUnits="userSpaceOnUse">
      <stop stop-color="#E3C37F"></stop>
      <stop offset="1" stop-color="#936E31"></stop>
    </linearGradient>
    <linearGradient id="paint50_linear_734_589" x1="41.6169" y1="27.8697" x2="148.252" y2="27.8697" gradientUnits="userSpaceOnUse">
      <stop stop-color="#E3C37F"></stop>
      <stop offset="1" stop-color="#936E31"></stop>
    </linearGradient>
    <linearGradient id="paint51_linear_734_589" x1="41.6173" y1="27.8699" x2="148.252" y2="27.8699" gradientUnits="userSpaceOnUse">
      <stop stop-color="#E3C37F"></stop>
      <stop offset="1" stop-color="#936E31"></stop>
    </linearGradient>
    <linearGradient id="paint52_linear_734_589" x1="41.6184" y1="27.8698" x2="148.253" y2="27.8698" gradientUnits="userSpaceOnUse">
      <stop stop-color="#E3C37F"></stop>
      <stop offset="1" stop-color="#936E31"></stop>
    </linearGradient>
    <linearGradient id="paint53_linear_734_589" x1="41.617" y1="27.8698" x2="148.252" y2="27.8698" gradientUnits="userSpaceOnUse">
      <stop stop-color="#E3C37F"></stop>
      <stop offset="1" stop-color="#936E31"></stop>
    </linearGradient>
    <clipPath id="clip0_734_589">
      <rect width="178" height="40" fill="white"></rect>
    </clipPath>
  </defs>
</svg>
