<?xml version="1.0" encoding="UTF-8"?>
<svg xmlns="http://www.w3.org/2000/svg" width="100" height="100" viewBox="0 0 100 100" fill="none">
  <path d="M93.4934 32.5779C93.1308 32.5779 92.783 32.722 92.5266 32.9784C92.2702 33.2348 92.1262 33.5825 92.1262 33.9451V41.2529H76.1418C74.4198 41.2546 72.7687 41.9393 71.551 43.1569C70.3333 44.3745 69.6483 46.0254 69.6465 47.7475V51.3928H16.4285V26.1248C19.0237 25.9659 21.4711 24.8628 23.3091 23.0237C25.1471 21.1846 26.2486 18.7365 26.4059 16.1412H53.0465C53.2261 16.1413 53.4039 16.106 53.5698 16.0373C53.7357 15.9687 53.8865 15.868 54.0135 15.741C54.1404 15.614 54.2411 15.4633 54.3098 15.2973C54.3785 15.1314 54.4138 14.9536 54.4137 14.774V12.3834C54.4116 10.3874 53.6178 8.47369 52.2065 7.06222C50.7952 5.65074 48.8816 4.85677 46.8855 4.85449H15.7918C15.7621 4.85449 15.7332 4.86152 15.7035 4.86309C12.8953 4.88799 10.2104 6.02008 8.23218 8.01337C6.25396 10.0067 5.14227 12.7001 5.13867 15.5084V15.5686V52.7342V52.7646V62.0459C5.14053 63.2514 5.62044 64.4069 6.47312 65.259C7.32581 66.1111 8.48165 66.5902 9.68711 66.5912H43.4098V82.6982H29.6309C28.3282 82.7003 27.0795 83.2187 26.1584 84.1398C25.2373 85.0609 24.7189 86.3096 24.7168 87.6123V92.4107H19.5309C19.1683 92.4107 18.8205 92.5548 18.5641 92.8112C18.3077 93.0676 18.1637 93.4153 18.1637 93.7779C18.1637 94.1405 18.3077 94.4883 18.5641 94.7447C18.8205 95.0011 19.1683 95.1451 19.5309 95.1451H80.4684C80.831 95.1451 81.1787 95.0011 81.4351 94.7447C81.6915 94.4883 81.8355 94.1405 81.8355 93.7779C81.8355 93.4153 81.6915 93.0676 81.4351 92.8112C81.1787 92.5548 80.831 92.4107 80.4684 92.4107H75.2824V87.6123C75.2803 86.3096 74.762 85.0609 73.8408 84.1398C72.9197 83.2187 71.671 82.7003 70.3684 82.6982H56.5894V66.5912H90.3121C91.5178 66.59 92.6738 66.1104 93.5264 65.2579C94.379 64.4053 94.8585 63.2493 94.8598 62.0436V33.9475C94.8602 33.7678 94.8251 33.5897 94.7567 33.4236C94.6882 33.2575 94.5876 33.1065 94.4607 32.9792C94.3337 32.852 94.183 32.7511 94.017 32.6822C93.851 32.6134 93.6731 32.5779 93.4934 32.5779ZM72.3809 47.7498C72.3821 46.7528 72.7788 45.797 73.4838 45.0921C74.1889 44.3871 75.1448 43.9907 76.1418 43.9896H92.1262V51.3951H72.3809V47.7498ZM51.6777 12.3834V13.4068H26.2262C25.7681 11.1575 24.5949 9.11663 22.8816 7.58887H46.8832C48.1542 7.59052 49.3727 8.09621 50.2713 8.99503C51.17 9.89384 51.6763 11.1124 51.6777 12.3834ZM15.7871 7.59355C16.8331 7.58316 17.8707 7.7802 18.8401 8.17328C19.8094 8.56636 20.6912 9.14768 21.4345 9.88364C22.1778 10.6196 22.7679 11.4956 23.1706 12.461C23.5732 13.4264 23.7806 14.462 23.7806 15.508C23.7806 16.554 23.5732 17.5897 23.1706 18.555C22.7679 19.5204 22.1778 20.3964 21.4345 21.1324C20.6912 21.8683 19.8094 22.4497 18.8401 22.8427C17.8707 23.2358 16.8331 23.4329 15.7871 23.4225C15.5527 23.4225 15.3184 23.4076 15.0879 23.3873C15.0785 23.3873 15.0699 23.3873 15.0613 23.3873H15.0527C13.1014 23.203 11.2876 22.3018 9.96212 20.8579C8.63659 19.4141 7.89339 17.5301 7.87617 15.5701V15.5061C7.87617 15.499 7.87617 15.4936 7.87617 15.4873C7.88381 13.3931 8.72028 11.3872 10.2027 9.90795C11.6851 8.42874 13.6929 7.59664 15.7871 7.59355ZM13.6941 25.9482V51.3896H7.87617V22.6107C9.4048 24.3216 11.4456 25.4923 13.6941 25.9482ZM72.548 87.6123V92.4107H27.4512V87.6123C27.4518 87.0344 27.6816 86.4804 28.0903 86.0717C28.4989 85.6631 29.053 85.4332 29.6309 85.4326H70.3684C70.9463 85.4332 71.5003 85.6631 71.9089 86.0717C72.3176 86.4804 72.5474 87.0344 72.548 87.6123ZM53.8551 82.6982H46.1441V66.5912H53.8551V82.6982ZM92.1262 62.0436C92.1258 62.5243 91.9346 62.9853 91.5946 63.3253C91.2546 63.6652 90.7937 63.8564 90.3129 63.8568H9.68711C9.20632 63.8564 8.74535 63.6652 8.40538 63.3253C8.06542 62.9853 7.87424 62.5243 7.87383 62.0436V54.1295H92.1262V62.0436Z" fill="#fff"></path>
  <path d="M40.5684 21.875V27.0063C40.5684 27.3689 40.7124 27.7166 40.9688 27.973C41.2252 28.2294 41.5729 28.3734 41.9355 28.3734C42.2981 28.3734 42.6459 28.2294 42.9023 27.973C43.1587 27.7166 43.3027 27.3689 43.3027 27.0063V21.875C43.3027 21.5124 43.1587 21.1647 42.9023 20.9083C42.6459 20.6519 42.2981 20.5078 41.9355 20.5078C41.5729 20.5078 41.2252 20.6519 40.9688 20.9083C40.7124 21.1647 40.5684 21.5124 40.5684 21.875Z" fill="#fff"></path>
  <path d="M33.7174 21.0155L30.4901 25.0061C30.2718 25.2889 30.1728 25.6459 30.2144 26.0008C30.256 26.3557 30.4348 26.6801 30.7127 26.9048C30.9905 27.1294 31.3453 27.2364 31.701 27.2027C32.0567 27.1691 32.3851 26.9976 32.6159 26.7248L35.8425 22.7342C36.0704 22.4524 36.177 22.0916 36.1389 21.7312C36.1008 21.3708 35.9211 21.0403 35.6393 20.8123C35.3575 20.5844 34.9967 20.4778 34.6363 20.5159C34.2759 20.554 33.9454 20.7337 33.7174 21.0155Z" fill="#fff"></path>
  <path d="M48.2318 20.8153C48.0923 20.9281 47.9763 21.0673 47.8906 21.225C47.8049 21.3826 47.751 21.5556 47.7322 21.7341C47.7133 21.9126 47.7298 22.093 47.7807 22.2651C47.8316 22.4372 47.9158 22.5976 48.0287 22.7371L51.256 26.7278C51.3674 26.8719 51.5063 26.9924 51.6648 27.0821C51.8233 27.1718 51.9982 27.2289 52.179 27.2501C52.3599 27.2713 52.5432 27.2562 52.7182 27.2055C52.8931 27.1549 53.0562 27.0699 53.1978 26.9554C53.3394 26.8409 53.4567 26.6992 53.5429 26.5388C53.629 26.3783 53.6822 26.2022 53.6993 26.0209C53.7165 25.8396 53.6972 25.6567 53.6427 25.4829C53.5882 25.3091 53.4995 25.148 53.3818 25.009L50.156 21.0153C50.0431 20.8753 49.9037 20.7591 49.7457 20.6733C49.5877 20.5875 49.4144 20.5337 49.2355 20.5151C49.0567 20.4965 48.876 20.5135 48.7037 20.565C48.5315 20.6165 48.3711 20.7015 48.2318 20.8153Z" fill="#fff"></path>
  <path d="M15.7863 19.8521C16.6455 19.8522 17.4854 19.5976 18.1998 19.1204C18.9142 18.6432 19.4711 17.9648 19.8 17.1711C20.1289 16.3774 20.215 15.504 20.0475 14.6614C19.88 13.8187 19.4663 13.0446 18.8589 12.4371C18.2514 11.8295 17.4774 11.4157 16.6348 11.2481C15.7922 11.0804 14.9188 11.1664 14.125 11.4951C13.3312 11.8239 12.6528 12.3806 12.1755 13.095C11.6981 13.8093 11.4434 14.6492 11.4434 15.5083C11.4446 16.6598 11.9025 17.7638 12.7167 18.5782C13.5309 19.3925 14.6348 19.8506 15.7863 19.8521ZM15.7863 13.8989C16.1047 13.8988 16.4159 13.993 16.6807 14.1698C16.9454 14.3465 17.1518 14.5978 17.2738 14.8919C17.3957 15.1859 17.4277 15.5096 17.3657 15.8218C17.3036 16.134 17.1504 16.4209 16.9254 16.646C16.7003 16.8712 16.4136 17.0245 16.1014 17.0867C15.7892 17.1489 15.4655 17.117 15.1714 16.9952C14.8773 16.8735 14.6259 16.6672 14.449 16.4025C14.2721 16.1378 14.1777 15.8266 14.1777 15.5083C14.1781 15.0817 14.3477 14.6727 14.6493 14.371C14.9508 14.0693 15.3598 13.8995 15.7863 13.8989Z" fill="#fff"></path>
</svg>
