<?xml version="1.0" encoding="UTF-8"?>
<svg xmlns="http://www.w3.org/2000/svg" width="100" height="100" viewBox="0 0 100 100" fill="none">
  <path d="M45 85.1562L48.4375 71.4062L51.875 85.1562" stroke="#fff" stroke-width="2.5" stroke-miterlimit="10" stroke-linecap="round" stroke-linejoin="round"></path>
  <path d="M31.4063 68.75L28.75 79.8437L32.8125 79.5312L48.4375 92.0312L36.25 67.0312" stroke="#fff" stroke-width="2.5" stroke-miterlimit="10" stroke-linecap="round" stroke-linejoin="round"></path>
  <path d="M65.3125 68.75L68.125 79.8437L64.0625 79.5312L48.4375 92.0312L60.625 67.0312" stroke="#fff" stroke-width="2.5" stroke-miterlimit="10" stroke-linecap="round" stroke-linejoin="round"></path>
  <path d="M45.625 34.2187C42.0313 38.125 36.5625 39.8437 33.75 40.625V47.6562C33.75 52.0312 35.625 55.9375 38.4375 58.5937C28.4375 57.8125 22.6562 50.7812 22.6562 50.7812C27.1875 47.0312 27.5 37.6562 27.5 37.6562C27.5 35.7812 27.8125 33.9063 28.2813 32.1875" stroke="#fff" stroke-width="2.5" stroke-miterlimit="10" stroke-linecap="round" stroke-linejoin="round"></path>
  <path d="M68.5938 32.1875C69.0625 33.9063 69.375 35.7812 69.375 37.6562C69.375 37.6562 69.6875 47.1875 74.2188 50.7812C74.2188 50.7812 68.4375 57.6562 58.4375 58.5937C61.4063 55.7812 63.125 51.875 63.125 47.6562V40.625C61.7188 40.3125 59.8438 39.6875 57.8125 38.75C55.4688 37.6562 53.125 36.25 51.25 34.2187" stroke="#fff" stroke-width="2.5" stroke-miterlimit="10" stroke-linecap="round" stroke-linejoin="round"></path>
  <path d="M51.25 34.2188C53.125 36.25 55.4687 37.6562 57.8125 38.75C59.8437 39.6875 61.875 40.1563 63.125 40.625V47.6563C63.125 55.9375 56.5625 62.5 48.4375 62.5C40.3125 62.5 33.75 55.7813 33.75 47.6563V40.625C36.5625 40 42.0313 38.2812 45.625 34.2188" stroke="#fff" stroke-width="2.5" stroke-miterlimit="10" stroke-linecap="round" stroke-linejoin="round"></path>
  <path d="M42.8125 61.4062V61.7188C42.8125 63.75 41.0938 65.4688 39.0625 65.9375L35.4688 66.7188C25.1562 68.125 18.125 72.6563 18.125 86.25C18.125 87 18.1261 88 18.125 88.7187C18.125 97.1562 18.2812 97.1875 27.6563 97.1875H69.0625C78.4375 97.1875 78.5937 97.3438 78.5937 88.9063C78.5937 88.125 78.5937 87.0313 78.5937 86.25C78.5937 72.6563 71.4062 68.125 61.25 66.7188L57.5 65.9375C55.4688 65.4688 54.0625 63.75 54.0625 61.7188" stroke="#fff" stroke-width="2.5" stroke-miterlimit="10" stroke-linecap="round" stroke-linejoin="round"></path>
  <path d="M27.8125 22.1875L15.3125 16.875L48.4375 2.65625L81.5625 16.875L69.0625 22.1875" stroke="#fff" stroke-width="2.5" stroke-miterlimit="10" stroke-linecap="round" stroke-linejoin="round"></path>
  <path d="M69.0625 20.4688V31.5625C69.0625 32.9688 59.8438 34.2188 48.4375 34.2188C37.0313 34.2188 27.8125 32.9688 27.8125 31.5625V20.4688C27.8125 19.0625 37.0313 17.8125 48.4375 17.8125C59.8438 17.8125 69.0625 19.0625 69.0625 20.4688Z" stroke="#fff" stroke-width="2.5" stroke-miterlimit="10" stroke-linecap="round" stroke-linejoin="round"></path>
  <path d="M81.5625 16.875V24.375" stroke="#fff" stroke-width="2.5" stroke-miterlimit="10" stroke-linecap="round" stroke-linejoin="round"></path>
  <path d="M84.6875 32.9688H78.2812V26.7188C78.2812 25.4687 79.375 24.375 80.625 24.375H82.3438C83.5938 24.375 84.6875 25.4687 84.6875 26.7188V32.9688Z" stroke="#fff" stroke-width="2.5" stroke-miterlimit="10" stroke-linecap="round" stroke-linejoin="round"></path>
  <path d="M48.4375 65.7812L44.8438 69.375L48.4375 72.8125L52.0312 69.375L48.4375 65.7812Z" stroke="#fff" stroke-width="2.5" stroke-miterlimit="10" stroke-linecap="round" stroke-linejoin="round"></path>
</svg>
