<?xml version="1.0" encoding="UTF-8"?>
<svg xmlns="http://www.w3.org/2000/svg" width="14" height="14" viewBox="0 0 14 14" fill="none">
  <path d="M8.75016 9.68301C8.87238 9.80523 9.02238 9.86634 9.20016 9.86634C9.37794 9.86634 9.5335 9.79967 9.66683 9.66634C9.78905 9.54412 9.85016 9.38856 9.85016 9.19967C9.85016 9.01079 9.78905 8.85523 9.66683 8.73301L7.66683 6.73301V4.31634C7.66683 4.12745 7.60294 3.9719 7.47516 3.84967C7.34738 3.72745 7.18905 3.66634 7.00016 3.66634C6.81127 3.66634 6.65294 3.73023 6.52516 3.85801C6.39738 3.98579 6.3335 4.14412 6.3335 4.33301V6.98301C6.3335 7.0719 6.35016 7.15801 6.3835 7.24134C6.41683 7.32467 6.46683 7.39967 6.5335 7.46634L8.75016 9.68301ZM7.00016 13.6663C6.07794 13.6663 5.21127 13.4913 4.40016 13.1413C3.58905 12.7913 2.8835 12.3163 2.2835 11.7163C1.6835 11.1163 1.2085 10.4108 0.858496 9.59967C0.508496 8.78856 0.333496 7.9219 0.333496 6.99967C0.333496 6.07745 0.508496 5.21079 0.858496 4.39967C1.2085 3.58856 1.6835 2.88301 2.2835 2.28301C2.8835 1.68301 3.58905 1.20801 4.40016 0.858008C5.21127 0.508008 6.07794 0.333008 7.00016 0.333008C7.92238 0.333008 8.78905 0.508008 9.60016 0.858008C10.4113 1.20801 11.1168 1.68301 11.7168 2.28301C12.3168 2.88301 12.7918 3.58856 13.1418 4.39967C13.4918 5.21079 13.6668 6.07745 13.6668 6.99967C13.6668 7.9219 13.4918 8.78856 13.1418 9.59967C12.7918 10.4108 12.3168 11.1163 11.7168 11.7163C11.1168 12.3163 10.4113 12.7913 9.60016 13.1413C8.78905 13.4913 7.92238 13.6663 7.00016 13.6663ZM7.00016 12.333C8.47794 12.333 9.73627 11.8136 10.7752 10.7747C11.8141 9.73579 12.3335 8.47745 12.3335 6.99967C12.3335 5.5219 11.8141 4.26356 10.7752 3.22467C9.73627 2.18579 8.47794 1.66634 7.00016 1.66634C5.52238 1.66634 4.26405 2.18579 3.22516 3.22467C2.18627 4.26356 1.66683 5.5219 1.66683 6.99967C1.66683 8.47745 2.18627 9.73579 3.22516 10.7747C4.26405 11.8136 5.52238 12.333 7.00016 12.333Z" fill="#9E9E9E"></path>
</svg>
