<?xml version="1.0" encoding="UTF-8"?>
<svg xmlns="http://www.w3.org/2000/svg" width="100" height="100" viewBox="0 0 100 100" fill="none">
  <path d="M73.6012 36.0503C79.1504 37.4913 83.2475 42.5345 83.2475 48.5347C83.2475 54.6626 78.9738 59.7925 73.2441 61.1062" stroke="#fff" stroke-width="2.5" stroke-miterlimit="10" stroke-linecap="round" stroke-linejoin="round"></path>
  <path d="M87.3914 70.318C83.9887 66.0232 79.2629 62.8244 73.8301 61.3369" stroke="#fff" stroke-width="2.5" stroke-miterlimit="10" stroke-linecap="round" stroke-linejoin="round"></path>
  <path d="M61.6641 98.0468H93.0223V86.7046" stroke="#fff" stroke-width="2.5" stroke-miterlimit="10" stroke-linecap="round" stroke-linejoin="round"></path>
  <path d="M36.1855 61.3462C25.1395 64.3866 17.0254 74.504 17.0254 86.5163V88.28" stroke="#fff" stroke-width="2.5" stroke-miterlimit="10" stroke-linecap="round" stroke-linejoin="round"></path>
  <path d="M73.8433 61.3442C85.937 64.6868 93.0293 75.4874 93.0293 87.4997V89.2634" stroke="#fff" stroke-width="2.5" stroke-miterlimit="10" stroke-linecap="round" stroke-linejoin="round"></path>
  <path d="M73.5699 36.4586C76.323 32.8465 77.9578 28.3359 77.9578 23.4436C77.9578 11.5748 68.3361 1.95312 56.4674 1.95312H53.5822C41.7135 1.95312 32.0918 11.5748 32.0918 23.4436C32.0918 28.1805 33.6244 32.5594 36.2207 36.1117" stroke="#fff" stroke-width="2.5" stroke-miterlimit="10" stroke-linecap="round" stroke-linejoin="round"></path>
  <path d="M58.1689 44.4688C56.432 46.2057 53.6158 46.2057 51.8789 44.4688" stroke="#fff" stroke-width="2.5" stroke-miterlimit="10" stroke-linecap="round" stroke-linejoin="round"></path>
  <path d="M36.6953 35.4547C39.6912 34.0209 41.598 30.9945 41.598 27.673C41.598 25.4105 43.4322 23.5764 45.6947 23.5764H56.2436C59.2807 23.5764 61.7428 21.1143 61.7428 18.0771C65.4482 18.0771 68.4521 21.0811 68.4521 24.7865V28.1361C68.4521 31.1744 70.1965 33.943 72.9371 35.2547L73.3549 35.4547V37.0723C73.3549 47.1955 65.1484 55.4019 55.0252 55.4019C44.902 55.4019 36.6955 47.1955 36.6955 37.0723L36.6953 35.4547Z" stroke="#fff" stroke-width="2.5" stroke-miterlimit="10" stroke-linecap="round" stroke-linejoin="round"></path>
  <path d="M55.023 88.1061L39.5312 72.8908L43.7203 70.6754L36.4375 61.2781L48.4791 58.4102" stroke="#fff" stroke-width="2.5" stroke-miterlimit="10" stroke-linecap="round" stroke-linejoin="round"></path>
  <path d="M55.0234 88.6721L70.5152 72.8908L66.3262 70.6754L73.609 61.2781L61.5674 58.4102" stroke="#fff" stroke-width="2.5" stroke-miterlimit="10" stroke-linecap="round" stroke-linejoin="round"></path>
  <path d="M55.0234 76.0405V88.106" stroke="#fff" stroke-width="2.5" stroke-miterlimit="10" stroke-linecap="round" stroke-linejoin="round"></path>
  <path d="M61.6639 88.6719H39.9291C36.8314 88.6719 34.3203 91.183 34.3203 94.2807V98.0469H61.6641V88.6719H61.6639Z" stroke="#fff" stroke-width="2.5" stroke-miterlimit="10" stroke-linecap="round" stroke-linejoin="round"></path>
  <path d="M6.97656 88.6719H28.7115C31.8092 88.6719 34.3203 91.183 34.3203 94.2807V98.0469H6.97656V88.6719Z" stroke="#fff" stroke-width="2.5" stroke-miterlimit="10" stroke-linecap="round" stroke-linejoin="round"></path>
  <path d="M48.4805 55.1865V58.7035L55.0244 76.0406L61.5686 58.7035V55.1865" stroke="#fff" stroke-width="2.5" stroke-miterlimit="10" stroke-linecap="round" stroke-linejoin="round"></path>
  <path d="M74.2793 85.3682H80.023" stroke="#fff" stroke-width="2.5" stroke-miterlimit="10" stroke-linecap="round" stroke-linejoin="round"></path>
  <path d="M36.2203 36.1113C30.7867 37.6293 26.8008 42.6164 26.8008 48.5346C26.8008 54.6502 31.0572 59.7717 36.7693 61.098" stroke="#fff" stroke-width="2.5" stroke-miterlimit="10" stroke-linecap="round" stroke-linejoin="round"></path>
</svg>
