<?xml version="1.0" encoding="UTF-8"?>
<svg xmlns="http://www.w3.org/2000/svg" width="100" height="100" viewBox="0 0 100 100" fill="none">
  <path d="M53.5215 81.8345H1.95898C1.95898 87.8751 6.85586 92.772 12.8965 92.772H76.5684C82.6091 92.772 87.5059 87.8751 87.5059 81.8345H53.5215Z" stroke="#fff" stroke-width="2.5" stroke-miterlimit="10" stroke-linecap="round" stroke-linejoin="round"></path>
  <path d="M47.4321 70.5063H22.2397C19.7041 70.5063 17.6484 68.4507 17.6484 65.9149V48.5352C17.6484 45.9995 19.7041 43.9438 22.2397 43.9438H47.4321C49.9678 43.9438 52.0235 45.9995 52.0235 48.5352V65.9149C52.0235 68.4507 49.9678 70.5063 47.4321 70.5063Z" stroke="#fff" stroke-width="2.5" stroke-miterlimit="10" stroke-linecap="round" stroke-linejoin="round"></path>
  <path d="M32.2402 54.2306L37.4273 57.2253L32.2402 60.2202V54.2306Z" stroke="#fff" stroke-width="2.5" stroke-miterlimit="10" stroke-linecap="round" stroke-linejoin="round"></path>
  <path d="M98.0524 19.9204L73.6619 32.6157L49.2715 19.9204L73.6619 7.22507L98.0524 19.9204Z" stroke="#fff" stroke-width="2.5" stroke-miterlimit="10" stroke-linecap="round" stroke-linejoin="round"></path>
  <path d="M98.0527 19.9202V35.0923" stroke="#fff" stroke-width="2.5" stroke-miterlimit="10" stroke-linecap="round" stroke-linejoin="round"></path>
  <path d="M61.9199 70.5063H72.5971" stroke="#fff" stroke-width="2.5" stroke-miterlimit="10" stroke-linecap="round" stroke-linejoin="round"></path>
  <path d="M61.9199 61.1313H72.5971" stroke="#fff" stroke-width="2.5" stroke-miterlimit="10" stroke-linecap="round" stroke-linejoin="round"></path>
  <path d="M87.6086 25.3561V39.2567L73.6608 45.1812L59.7129 39.2567V25.3561" stroke="#fff" stroke-width="2.5" stroke-miterlimit="10" stroke-linecap="round" stroke-linejoin="round"></path>
  <path d="M82.0371 81.8345V43.7485C82.0371 43.0499 81.9729 42.3665 81.8496 41.7034" stroke="#fff" stroke-width="2.5" stroke-miterlimit="10" stroke-linecap="round" stroke-linejoin="round"></path>
  <path d="M59.7145 32.6157H18.5606C12.4121 32.6157 7.42773 37.6001 7.42773 43.7485V81.8345" stroke="#fff" stroke-width="2.5" stroke-miterlimit="10" stroke-linecap="round" stroke-linejoin="round"></path>
</svg>
